<svg width="226" height="73" viewBox="0 0 226 73" fill="none" xmlns="http://www.w3.org/2000/svg">
<path d="M0.956055 2.9585H2.01074V10.4951C2.52344 10.7148 2.96289 10.8467 3.3291 10.8906V26.2275C2.05469 26.2568 1.61523 27.0918 2.01074 28.7324C1.65918 28.8789 1.30762 28.9229 0.956055 28.8643V31.7866C1.77637 31.5815 2.17188 31.9331 2.14258 32.8413C3.06543 32.8999 3.50488 33.3833 3.46094 34.2915C4.42773 34.2329 4.86719 34.6724 4.7793 35.6099C5.87793 35.4634 6.28076 36.2544 5.98779 37.9829C6.42725 38.188 6.82275 38.3198 7.17432 38.3784C7.07178 40.0337 7.51123 40.832 8.49268 40.7734C8.14111 42.5459 8.53662 43.4248 9.6792 43.4102C9.75244 44.4062 10.2358 44.8457 11.1294 44.7285C11.4077 43.8789 11.4517 43.0879 11.2612 42.3555C11.8618 42.1797 12.3452 41.96 12.7114 41.6963V40.7734C14.4399 41.0078 15.9854 40.9199 17.3477 40.5098C16.8789 39.9238 16.3516 39.5283 15.7656 39.3232H15.3701C14.7988 39.3232 14.3154 39.3672 13.9199 39.4551C13.3926 39.3379 12.9458 39.3379 12.5796 39.4551C12.4917 39.9092 12.4478 40.3047 12.4478 40.6416C11.9497 40.6416 11.5103 40.5977 11.1294 40.5098C10.8511 39.4258 10.8511 38.4077 11.1294 37.4556C10.7485 35.1118 11.2759 33.2222 12.7114 31.7866C12.814 31.1714 13.0337 30.688 13.3706 30.3364V29.9189C13.8979 28.7764 14.1689 27.7217 14.1836 26.7549L14.7109 26.3594C14.9893 27.3408 15.1211 28.1758 15.1064 28.8643C15.5898 29.0693 16.0293 29.2012 16.4248 29.2598V30.0728C15.4141 30.2046 15.0186 30.688 15.2383 31.5229C16.0732 31.6255 16.4688 32.0649 16.4248 32.8413C17.2451 33.0024 17.6846 33.4419 17.7432 34.1597C18.666 34.2183 19.1055 34.6577 19.0615 35.478C19.8965 35.6099 20.292 36.0933 20.248 36.9282C21.9619 37.4263 22.3135 39.1035 21.3027 41.96C20.585 41.7549 20.1455 41.3154 19.9844 40.6416C19.1787 40.7881 18.4756 40.7881 17.875 40.6416L17.6113 41.3008C17.9482 42.165 18.7832 42.4287 20.1162 42.0918C20.1748 43.0879 20.6582 43.5713 21.5664 43.542V52.2651L21.3027 52.397H20.9072H19.1934C19.0762 52.9536 18.9004 53.3931 18.666 53.7153C17.8604 53.5835 17.2012 53.5396 16.6885 53.5835C16.542 53.0854 16.4541 52.6899 16.4248 52.397C15.5459 52.4263 15.1064 51.9868 15.1064 51.0786C14.1396 51.1372 13.6929 50.6978 13.7661 49.7603H12.7114C12.6968 49.2622 12.5649 48.8228 12.3159 48.4419C10.646 48.0757 9.81104 48.5151 9.81104 49.7603C8.771 49.731 8.33154 50.2144 8.49268 51.2104C8.43408 52.2358 8.87354 52.6753 9.81104 52.5288C9.75244 53.481 10.1919 53.9644 11.1294 53.979C11.144 54.8579 11.5835 55.2974 12.4478 55.2974C12.0962 56.9526 12.5356 57.8389 13.7661 57.9561V64.0425C14.7329 64.189 15.1797 64.6724 15.1064 65.4927C16.8496 66.064 17.8164 65.6685 18.0068 64.3062C18.4609 64.3062 18.8564 64.2183 19.1934 64.0425V63.625V63.2295V59.1426L20.3799 59.0107C20.248 57.9121 21.0464 57.5166 22.7749 57.8242C22.8921 56.8867 23.3315 56.4473 24.0933 56.5059C24.1665 57.4287 24.606 57.8682 25.4116 57.8242C25.3384 59.0693 26.6567 59.4648 29.3667 59.0107C29.2495 59.7432 29.4692 60.2266 30.0259 60.4609C30.7437 60.3145 31.3662 60.2705 31.8936 60.3291C32.5381 60.417 33.0654 60.417 33.4756 60.3291H33.8711C35.043 60.4609 36.0537 60.4609 36.9033 60.3291C37.1523 60.7246 37.2402 61.1201 37.167 61.5156C38.1191 61.5596 38.6025 61.999 38.6172 62.834C38.9834 62.9658 39.3423 63.0098 39.6938 62.9658C39.7817 63.9033 40.2651 64.394 41.144 64.438C41.1294 67.0015 41.1294 69.0669 41.144 70.6343C41.5981 70.7515 41.9937 70.7954 42.3306 70.7661C42.272 71.9966 43.1509 72.436 44.9673 72.0845C45.1431 71.1177 45.6704 70.6343 46.5493 70.6343V69.7114V69.1841V67.7339V67.0747V66.6792V66.1519V65.7563V63.0977L47.8677 62.7021V62.1748V61.7793V59.1426C48.439 59.0693 48.8857 58.8936 49.208 58.6152V57.0332C48.9883 56.3594 48.5415 56.0957 47.8677 56.2422C47.853 55.2461 47.4136 54.7993 46.5493 54.9019C45.6265 54.7407 45.0991 55.0557 44.9673 55.8467C44.9233 56.3154 44.5718 56.4473 43.9126 56.2422C43.854 57.1797 43.4146 57.6191 42.5942 57.5605L42.4624 57.9561C42.4478 58.7324 42.0962 58.9961 41.4077 58.7471C41.2319 57.9268 41.2319 57.1797 41.4077 56.5059C42.5503 56.623 42.9458 55.7808 42.5942 53.979L43.5171 53.8472L43.9126 53.7153V53.188V52.7925V50.1558L45.231 49.7603V47.519C45.9048 47.3579 46.4321 47.1821 46.813 46.9917C46.5347 46.1421 45.9634 45.6074 45.0991 45.3877C45.187 44.9775 45.231 44.626 45.231 44.333V43.9375V42.2236L46.2856 42.0918C46.6812 40.9639 47.5234 40.5684 48.8125 40.9053C49.0908 40.4219 49.2666 39.9824 49.3398 39.5869C50.2334 39.6162 50.9805 39.5723 51.5811 39.4551C51.7275 38.6201 52.2109 38.1294 53.0312 37.9829C53.0752 37.2358 53.4707 36.8403 54.2178 36.7964C54.3936 35.9761 54.877 35.4487 55.668 35.2144V34.8188V34.2915V31.9185C56.1953 31.772 56.6421 31.6841 57.0083 31.6548V30.9956V30.4683C57.0815 30.0435 57.1255 29.6846 57.1401 29.3916C56.9497 28.3662 56.9058 27.4873 57.0083 26.7549C57.3599 26.5352 57.7114 26.4033 58.063 26.3594C58.0337 25.9053 57.9897 25.5537 57.9312 25.3047C57.2573 24.9385 56.8105 24.4111 56.5908 23.7227C55.917 23.5322 55.6094 23.0928 55.668 22.4043C55.6094 21.5254 56.0122 21.0347 56.8765 20.9321C56.6421 19.4087 57.0815 18.6177 58.1948 18.5591C57.8872 16.7134 58.2827 15.8784 59.3813 16.0542C59.4985 15.1313 59.938 14.6919 60.6997 14.7358C60.8608 13.4468 61.7397 13.0073 63.3364 13.4175C63.4536 12.6411 63.8491 12.1943 64.5229 12.0771L64.6548 11.418C64.9038 11.0078 65.2627 10.7881 65.7314 10.7588C65.8779 9.90918 66.3174 9.51367 67.0498 9.57227C67.2842 8.69336 67.7676 8.20996 68.5 8.12207C68.5732 7.30176 68.8369 6.68652 69.291 6.27637C69.8184 6.68652 70.3457 6.90625 70.873 6.93555L71.0049 7.19922C71.0195 8.89844 71.1074 10.2607 71.2686 11.2861C70.8438 11.7695 70.3604 12.0771 69.8184 12.209C69.7451 13.4102 69.833 14.4282 70.082 15.2632C69.5693 15.6733 69.042 15.937 68.5 16.0542V21.6133C68.0898 22.0967 67.6504 22.4482 67.1816 22.668V27.9414C67.167 28.9082 67.167 29.6626 67.1816 30.2046C68.1777 30.2925 68.6172 30.688 68.5 31.3911C67.7236 31.728 67.0205 31.8159 66.3906 31.6548L65.9951 32.5776C66.9619 32.7388 67.4014 33.2222 67.3135 34.0278C68.5146 34.2769 68.9102 35.1558 68.5 36.6646C69.6865 36.8257 70.126 37.624 69.8184 39.0596C68.9248 39.2939 68.4414 39.8213 68.3682 40.6416C66.7129 40.2754 65.8779 40.6709 65.8633 41.8281C64.9111 41.8428 64.4204 42.3262 64.3911 43.2783C63.5708 43.2197 63.1753 43.6152 63.2046 44.4648C61.9302 44.3477 61.5347 45.6733 62.0181 48.4419L60.8315 48.3101V47.2554V46.8379V46.4424V42.3555C60.4214 41.9893 59.9819 41.8135 59.5132 41.8281V40.5098V39.9824V39.5869V36.9282L58.1948 36.6646V35.6099C58.1216 34.3062 58.2095 33.2075 58.4585 32.314C58.0923 31.8452 57.6528 31.6694 57.1401 31.7866C56.7886 32.7241 56.6494 33.603 56.7227 34.4233L56.8765 35.2144C57.9019 37.0308 58.2974 38.8838 58.063 40.7734C58.0776 41.2129 58.1216 41.5645 58.1948 41.8281C58.7368 41.9893 59.1323 42.2969 59.3813 42.751V44.2012L59.2495 44.5967C59.2056 45.2412 59.1177 45.8125 58.9858 46.3105L58.4585 46.5742C57.4624 45.4756 56.8838 45.6587 56.7227 47.1235C56.8838 47.2114 56.979 47.2993 57.0083 47.3872C57.8286 47.27 58.5317 47.2261 59.1177 47.2554C59.2495 48.2368 59.7329 48.7202 60.5679 48.7056C60.5825 49.5552 60.978 49.9946 61.7544 50.0239L62.1499 49.7603C62.0913 48.8667 62.4868 48.4272 63.3364 48.4419V47.7827V47.3872C63.5269 46.4058 63.5708 45.5635 63.4683 44.8604L64.7866 44.4648C64.7573 43.6299 65.1602 43.2344 65.9951 43.2783C65.9658 42.2529 66.8008 41.8574 68.5 42.0918C68.6465 41.5791 68.7344 41.1396 68.7637 40.7734C69.7598 40.8613 70.5947 40.8174 71.2686 40.6416V40.1143V38.7959V38.2466V37.7192V37.3237V36.7964V34.4233L69.9502 33.896V33.3687V32.8413V30.4683C69.4375 30.2485 68.998 30.1167 68.6318 30.0728V29.3916L68.7637 28.8643C68.7783 28.3369 68.7344 27.8535 68.6318 27.4141V26.8867C68.6025 25.9932 68.6465 25.2461 68.7637 24.6455C68.6025 23.9424 68.5586 23.2832 68.6318 22.668L69.9502 22.2725V21.7451V20.4048V19.8774V19.3501V18.9546V18.4272V16.0542C70.5068 16.0103 70.9463 15.8784 71.2686 15.6587C70.9023 12.9634 71.2979 11.7695 72.4551 12.0771L72.5869 11.2861V10.7588V10.3633V9.7041V9.30859V8.78125V8.38574V5.74902C73.1729 5.64648 73.6123 5.51465 73.9053 5.35352C74.0518 3.87402 73.9639 2.59229 73.6416 1.5083H72.5869H69.9502C69.8037 2.021 69.7158 2.46045 69.6865 2.82666H67.3135C67.2988 3.85205 66.8594 4.2915 65.9951 4.14502C65.9512 5.09717 65.4604 5.63184 64.5229 5.74902C64.5815 6.52539 64.186 6.9209 63.3364 6.93555L63.2046 8.12207L62.2817 7.99023H60.9634C60.7729 8.94238 60.2456 9.46973 59.3813 9.57227C59.3813 10.4219 58.9419 10.8613 58.063 10.8906C58.0337 11.7402 57.5869 12.1797 56.7227 12.209C56.7666 13.0439 56.3711 13.4468 55.5361 13.4175C55.3896 14.3843 55.3457 15.1753 55.4043 15.7905C54.5107 15.7759 54.0713 16.2153 54.0859 17.1089C53.5439 17.1089 53.1045 17.2407 52.7676 17.5044C52.8262 18.4419 52.8262 19.189 52.7676 19.7456C51.8154 19.7017 51.376 20.1411 51.4492 21.064L50.2627 21.1958V23.7227C51.2588 23.7227 51.6982 24.1621 51.5811 25.041C52.123 25.1289 52.5625 25.2607 52.8994 25.4365L52.7676 26.4912L52.8994 29.9189C52.2695 30.1533 51.7861 30.3804 51.4492 30.6001C51.918 33.1343 51.5225 34.3647 50.2627 34.2915C50.2627 35.1411 49.8232 35.5806 48.9443 35.6099C48.9297 36.0493 48.8857 36.4009 48.8125 36.6646C47.9043 36.7085 47.1499 36.6646 46.5493 36.5327V35.478V35.0825V34.687V30.6001C46.1099 30.2632 45.6704 30.0874 45.231 30.0728V27.4141V26.7549V26.3594V25.832V25.3047V24.7773V24.25V22.0088V21.6133V20.0093C44.7769 19.8042 44.3813 19.7163 44.0444 19.7456C43.8979 19.394 43.854 19.0425 43.9126 18.6909C42.6821 18.0903 41.7593 18.2222 41.144 19.0864C41.0122 19.687 40.6606 19.9067 40.0894 19.7456C39.8989 20.6978 39.3643 21.2251 38.4854 21.3276C38.4854 21.7817 38.4414 22.1406 38.3535 22.4043H37.4307C36.4639 22.3457 35.6729 22.3457 35.0576 22.4043C33.8857 22.624 33.3584 22.2212 33.4756 21.1958C32.2891 21.2983 31.8496 20.4194 32.1572 18.5591C31.1611 18.5444 30.7144 18.105 30.8169 17.2407C29.0005 16.6694 28.0776 17.0649 28.0483 18.4272C26.7593 18.4858 26.3638 19.189 26.8618 20.5366C26.5542 21.064 26.1147 21.2837 25.5435 21.1958C25.4263 21.855 25.3823 22.3896 25.4116 22.7998L25.5435 24.7773C25.0308 25.0117 24.5913 25.1436 24.2251 25.1729V30.0728L22.9067 30.4683C23.3169 31.9771 23.002 32.7681 21.9619 32.8413C21.8154 32.5044 21.7715 32.1528 21.8301 31.7866C21.332 31.5669 20.8926 31.4351 20.5117 31.3911L20.3799 30.9956L20.5117 30.7319V30.3364C20.5557 29.2964 20.5117 28.4102 20.3799 27.6777C19.9258 27.5898 19.5303 27.5459 19.1934 27.5459V27.0186V26.623V23.9863C20.1309 23.8984 20.5703 23.459 20.5117 22.668C21.0391 22.6533 21.4785 22.4775 21.8301 22.1406C21.874 21.2031 21.8301 20.4487 21.6982 19.8774C21.2588 19.7896 20.8633 19.7456 20.5117 19.7456C20.4385 18.9253 20.4385 18.2661 20.5117 17.7681C20.2041 17.2114 19.7646 16.9917 19.1934 17.1089V14.8677C18.7246 14.5894 18.2852 14.4575 17.875 14.4722V12.209C17.4209 12.0039 17.0254 11.916 16.6885 11.9453L16.5566 11.418L16.4248 10.7588C15.5312 10.6855 15.0918 10.2461 15.1064 9.44043L13.9199 9.17676V8.25391C13.4658 8.03418 13.063 7.94629 12.7114 7.99023V7.19922C12.272 6.81836 11.8325 6.64258 11.3931 6.67188C11.3931 5.76367 10.9536 5.32422 10.0747 5.35352C10.0601 4.47461 9.62061 4.02783 8.75635 4.01318L8.62451 2.82666H7.56982L7.17432 1.5083C6.22217 1.55225 5.42383 1.5083 4.7793 1.37646V0.453613H4.25195H3.85645H3.3291H0.956055V2.9585ZM2.53809 1.77197C4.96973 2.13818 4.88184 2.4458 2.27441 2.69482L2.53809 1.77197ZM7.17432 3.09033C7.07178 4.04248 6.58838 4.3501 5.72412 4.01318C5.70947 3.63232 5.84131 3.32471 6.11963 3.09033H7.17432ZM4.64746 4.40869C4.66211 5.229 5.06494 5.67578 5.85596 5.74902C5.8999 6.58398 6.3833 7.06738 7.30615 7.19922C7.3501 7.96094 7.74561 8.35645 8.49268 8.38574C8.55127 9.19141 8.94678 9.58691 9.6792 9.57227C9.79639 10.4805 10.2798 10.9639 11.1294 11.0225C11.188 11.8428 11.6274 12.3262 12.4478 12.4727C12.1987 13.7471 12.5942 14.6772 13.6343 15.2632V15.6587L13.9199 17.2407C14.3594 17.3286 14.7549 17.4604 15.1064 17.6362L14.9746 18.1636C15.1064 18.7056 15.1504 19.189 15.1064 19.6138C15.502 19.8921 15.8975 20.0679 16.293 20.1411C16.2197 20.8735 15.8242 21.3643 15.1064 21.6133L14.8428 22.4043H14.4473C13.4072 22.5654 12.521 22.6094 11.7886 22.5361L11.2612 22.9316L11.3931 23.7227C12.5796 23.5908 13.3267 24.0303 13.6343 25.041C14.103 26.0078 13.7075 26.4912 12.4478 26.4912V27.4141C12.5503 28.4541 12.5942 29.3403 12.5796 30.0728L11.1294 30.3364C11.1001 31.2593 11.188 32.0503 11.3931 32.7095C10.7339 32.8267 10.2065 32.9585 9.81104 33.105V37.8511C9.85498 38.8472 9.94287 39.6895 10.0747 40.3779C9.59131 40.583 9.15186 40.6709 8.75635 40.6416L8.62451 40.3779V39.9824C8.7417 39.3086 8.78564 38.73 8.75635 38.2466C8.24365 38.0415 7.8042 37.9097 7.43799 37.8511V35.6099C6.99854 35.4341 6.60303 35.3462 6.25146 35.3462C6.16357 34.4233 5.7168 33.9839 4.91113 34.0278C4.88184 33.1196 4.44238 32.7241 3.59277 32.8413C3.51953 31.9038 3.03613 31.4204 2.14258 31.3911C2.18652 30.5854 2.62598 30.1899 3.46094 30.2046C3.46094 29.311 3.90039 28.8643 4.7793 28.8643C4.75 28.0439 5.15283 27.6484 5.98779 27.6777L6.25146 26.4912C7.24756 26.4326 8.08252 26.3008 8.75635 26.0957C8.43408 25.0117 7.55518 24.748 6.11963 25.3047C6.04639 25.7148 5.91455 26.0664 5.72412 26.3594L4.7793 26.0957V25.3047C4.92578 24.4844 4.92578 23.7812 4.7793 23.1953L4.91113 22.2725C4.82324 21.5547 4.7793 20.9321 4.7793 20.4048L4.91113 19.7456V19.2183V18.5591V18.0317L4.7793 17.3726L4.91113 16.8452V16.0542V15.5269V15.1313V14.7358C4.75 13.1538 4.70605 11.8721 4.7793 10.8906C4.22266 10.7441 3.7832 10.4805 3.46094 10.0996C3.40234 9.45508 3.49023 8.83984 3.72461 8.25391C3.44629 6.73047 3.44629 5.40479 3.72461 4.27686L4.64746 4.40869ZM67.5771 4.40869C68.7051 4.7749 68.7051 5.22168 67.5771 5.74902C67.3574 6.54004 66.874 6.8916 66.127 6.80371C66.0537 5.85156 66.4932 5.41211 67.4453 5.48535C67.4453 5.03125 67.4893 4.67236 67.5771 4.40869ZM64.9185 6.93555C66.1929 7.25781 66.1489 7.65332 64.7866 8.12207L64.9185 6.93555ZM64.7866 8.25391C64.1567 9.93848 63.7173 9.93848 63.4683 8.25391H64.7866ZM61.0952 9.57227C63.8052 9.7334 63.8052 10.041 61.0952 10.4951C61.0513 10.1729 61.0513 9.86523 61.0952 9.57227ZM59.645 10.8906C60.1724 10.8613 60.5679 11.0371 60.8315 11.418C60.3774 11.916 60.2017 12.3994 60.3042 12.8682L58.3267 13.813C57.6235 16.6694 57.1841 16.6255 57.0083 13.6812C58.019 13.6372 58.4585 13.1904 58.3267 12.3408C59.1763 12.165 59.6157 11.6816 59.645 10.8906ZM42.1987 20.1411C42.7261 20.0825 43.2095 20.0825 43.6489 20.1411L43.5171 20.8003C41.8911 20.9907 41.2759 20.7271 41.6714 20.0093L42.1987 20.1411ZM29.894 22.4043C30.3188 22.4922 30.6704 22.5361 30.9487 22.5361H31.3662H33.0801C33.3145 23.0342 33.4463 23.4736 33.4756 23.8545C35.6436 23.4004 37.0498 23.7959 37.6943 25.041C38.8662 25.3926 38.7344 26.2275 37.2988 27.5459C36.2148 27.4727 35.292 27.6484 34.5303 28.0732C34.8672 29.1719 34.9551 30.1899 34.7939 31.1274C36.5518 32.6509 36.2441 33.7056 33.8711 34.2915H32.9482H32.5527C31.5566 34.1304 30.7144 34.0864 30.0259 34.1597C29.6597 33.603 29.2642 33.2075 28.8394 32.9731V32.8413V32.9731V32.8413C26.9204 33.1343 25.2065 32.9585 23.6978 32.314C24.1226 31.6987 24.3862 31.0835 24.4888 30.4683H25.5435C25.8657 30.3657 26.1733 30.3218 26.4663 30.3364C26.73 30.8638 26.9058 31.3032 26.9937 31.6548H27.3892C28.1948 31.6987 28.8979 31.6548 29.4985 31.5229C29.5425 30.8931 29.7183 30.4097 30.0259 30.0728C31.7837 28.1538 30.8608 26.5205 27.2573 25.1729C27.0376 24.7773 26.9497 24.3818 26.9937 23.9863C28.3853 23.8984 29.3521 23.3711 29.894 22.4043ZM9.15186 23.459C8.08252 24.8799 8.52197 25.4512 10.4702 25.1729C11.8179 24.4697 11.3784 23.8984 9.15186 23.459ZM3.59277 26.4912C4.41309 26.4473 4.76465 26.7988 4.64746 27.5459C3.70996 27.6631 3.3584 27.3115 3.59277 26.4912ZM25.8071 26.4912C26.686 26.5352 26.9937 27.0625 26.73 28.0732C26.7886 28.8057 26.437 29.0254 25.6753 28.7324C25.6313 27.8389 25.6753 27.0918 25.8071 26.4912ZM54.877 26.623C55.5215 26.9746 55.4775 27.2383 54.7451 27.4141L54.877 26.623ZM58.4585 26.8867C58.4731 27.5312 58.8247 27.8389 59.5132 27.8096C59.5571 28.9668 60.3042 29.3623 61.7544 28.9961C61.9302 29.9629 62.4136 30.4536 63.2046 30.4683C63.3511 30.9663 63.439 31.3618 63.4683 31.6548L65.5996 31.5229C65.8193 30.6001 65.1089 30.1606 63.4683 30.2046C63.5269 29.2964 63.1313 28.8496 62.2817 28.8643C62.1353 28.3809 62.0474 27.9854 62.0181 27.6777C61.0073 27.7217 60.1724 27.502 59.5132 27.0186C59.0884 26.9307 58.7368 26.8867 58.4585 26.8867ZM28.4438 27.8096C29.3228 27.8828 29.6304 28.3662 29.3667 29.2598C29.7329 30.168 29.3813 30.439 28.312 30.0728C28.2388 29.1938 28.2827 28.4395 28.4438 27.8096ZM63.6001 28.7324C64.3032 28.6592 64.3911 28.4395 63.8638 28.0732L63.6001 28.7324ZM36.1123 29.1279C37.0498 29.04 37.4014 29.4429 37.167 30.3364C37.2695 31.2007 36.918 31.5962 36.1123 31.5229V29.1279ZM38.8809 29.1279C39.833 29.084 40.6313 29.1279 41.2759 29.2598C41.1294 30.0215 40.646 30.4243 39.8257 30.4683V31.3911C38.522 31.5376 38.207 30.7832 38.8809 29.1279ZM62.5454 32.314C63.146 32.1675 63.1899 31.9917 62.6772 31.7866L62.5454 32.314ZM25.8071 34.2915C27.3599 34.3794 28.1069 35.1704 28.0483 36.6646C27.6528 36.6938 27.3013 36.7817 26.9937 36.9282C26.9058 37.1919 26.8618 37.4556 26.8618 37.7192L26.73 37.9829C25.5581 38.1294 25.2505 36.8989 25.8071 34.2915ZM36.376 35.6099C37.1523 35.6685 37.5479 36.064 37.5625 36.7964C38.2949 36.6646 38.6025 36.9722 38.4854 37.7192C38.251 38.0122 37.9434 38.144 37.5625 38.1147C37.4014 39.1548 36.918 39.5137 36.1123 39.1914C35.9951 37.8438 36.083 36.6499 36.376 35.6099ZM24.2251 43.6738V49.3647C24.1079 50.0093 24.064 50.5366 24.0933 50.9468L23.3022 51.0786L23.0386 49.6284V48.3101V47.7827V47.2554V43.9375L23.4341 43.4102L24.2251 43.6738ZM49.0762 44.4648C48.3145 45.1973 48.1826 45.6807 48.6807 45.915C49.7207 46.0908 50.5996 46.1348 51.3174 46.0469H52.2402C53.9541 46.208 55.4482 46.0762 56.7227 45.6514V45.5195V45.6514V45.5195C56.6201 45.4316 56.5762 45.2998 56.5908 45.124V45.2559V45.124C56.2246 44.9775 55.917 44.8018 55.668 44.5967H55.2725C54.7158 44.5967 54.2324 44.5527 53.8223 44.4648H53.2949C52.416 44.582 51.6689 44.582 51.0537 44.4648H50.6582H49.0762ZM40.8804 46.9917L41.144 48.0464V48.4419C41.2759 48.7935 41.3198 49.145 41.2759 49.4966V53.4517L39.9575 54.5063C39.9722 55.0337 39.9282 55.5244 39.8257 55.9785L38.8809 56.1104C38.3682 54.1182 38.7271 52.4409 39.9575 51.0786V50.4194C39.8696 48.9253 40.0015 47.6436 40.353 46.5742L40.8804 46.9917ZM27.1255 49.8921C27.8872 49.8774 28.1948 50.2729 28.0483 51.0786C28.1655 52.0015 27.77 52.5288 26.8618 52.6606V53.5835C26.3198 53.5981 25.8364 53.73 25.4116 53.979C25.397 54.6235 25.3091 55.1582 25.1479 55.583C25.9243 55.6855 26.5396 55.9932 26.9937 56.5059C27.6675 56.4326 28.063 56.6963 28.1802 57.2969C26.3784 58.0146 25.4995 57.5752 25.5435 55.9785L24.6206 56.1104C24.02 53.7666 24.3276 52.5288 25.5435 52.397C25.6021 51.5181 26.0854 51.0786 26.9937 51.0786L27.1255 49.8921ZM10.6021 50.0239H12.1841C12.3306 50.5073 12.4185 50.9028 12.4478 51.2104C14.4546 51.7964 13.7075 52.1479 10.2065 52.2651C10.0308 51.4448 10.0308 50.6978 10.2065 50.0239H10.6021ZM33.6074 52.5288C34.4131 52.5142 34.8086 52.9536 34.7939 53.8472C35.9072 53.8618 36.2588 54.6162 35.8486 56.1104C35.0576 56.3887 34.6182 55.9858 34.5303 54.9019C33.3438 54.8872 33.0361 54.0962 33.6074 52.5288ZM37.4307 56.374C37.8701 56.374 38.2217 56.4619 38.4854 56.6377C38.2363 57.6191 37.4453 57.9268 36.1123 57.5605V56.7695C36.5957 56.5352 37.0352 56.4033 37.4307 56.374ZM45.231 56.5059C46.7983 56.1689 47.5894 56.4766 47.604 57.4287C47.7651 58.1758 47.5454 58.6592 46.9448 58.8789C45.1138 59.4795 44.5425 58.6885 45.231 56.5059ZM35.8486 57.8242C35.834 58.2637 35.79 58.6152 35.7168 58.8789H35.0576L34.6621 58.7471H34.2666H33.8711H33.4756L32.4209 58.8789H32.0254H31.1025H30.6851C30.2749 58.791 29.9233 58.7471 29.6304 58.7471L29.4985 58.0879L29.894 57.8242H31.498H31.8936C33.0801 57.8828 34.0908 57.8389 34.9258 57.6924L35.8486 57.8242ZM104.271 0.475586C103.568 0.768555 102.836 0.856445 102.074 0.739258L101.657 2.54102H100.58C99.7744 2.74609 99.042 2.79004 98.3828 2.67285C98.0605 3.34668 97.8335 3.93994 97.7017 4.45264C96.2075 4.33545 95.563 4.97266 95.7681 6.36426C94.2593 6.49609 93.8052 7.08936 94.4058 8.14404L93.8564 8.42969C92.6553 8.7373 92.0181 8.09277 91.9448 6.49609H91.3955H89.0664H87.5503H87.001H84.6719H84.2764H82.6284L82.0791 6.91357C82.1816 8.24658 81.5444 8.88379 80.1675 8.8252L80.0137 9.24268L80.1675 10.3413C79.8013 11.8062 79.75 13.1758 80.0137 14.4502L80.4312 14.8677C81.1929 14.6919 81.6982 14.8677 81.9473 15.395V19.7896L82.3428 20.6025C83.8076 20.3975 84.3569 21.6792 83.9907 24.4478L84.2764 24.5796L86.0562 24.7114C86.1294 25.7515 86.0781 26.667 85.9023 27.458C85.7705 28.2051 84.6792 28.4761 82.6284 28.271L82.3428 27.8755C82.6943 25.5024 82.0571 24.4038 80.4312 24.5796L80.2993 24.9971V25.4146C80.0063 26.4985 79.8672 27.4507 79.8818 28.271L78.7832 28.4248C77.5381 25.9492 77.9995 24.6235 80.1675 24.4478V24.0303C80.2554 23.6055 80.2993 23.2393 80.2993 22.9316C78.7612 21.9795 77.9849 22.3896 77.9702 24.1621L76.1904 24.5796C76.1025 25.1069 76.1025 25.6123 76.1904 26.0957L76.0586 26.4912V30.0728L75.7729 30.3364C75.0991 30.3218 74.5498 30.4097 74.125 30.6001L73.9932 31.0176L74.125 31.6987L73.9932 32.7974V33.6323C74.1689 34.5845 74.2568 35.3608 74.2568 35.9614L74.6743 36.3569C75.7583 36.1372 76.2637 36.8257 76.1904 38.4224L77.9702 38.686C77.9409 39.3745 78.0288 39.9678 78.2339 40.4658C79.5815 40.2314 80.2261 40.876 80.1675 42.3994L81.9473 42.6631C81.9473 43.3516 81.9912 43.9009 82.0791 44.311L83.8589 44.5747L83.9907 46.2227C84.7378 46.4424 85.4263 46.5376 86.0562 46.5083L86.188 47.3213L85.9023 48.2881V51.8477C84.4521 51.8916 83.8149 52.5728 83.9907 53.8911C83.2437 53.9497 82.6064 54.1328 82.0791 54.4404L81.9473 55.1216V57.8682C81.9033 58.7178 81.9473 59.4502 82.0791 60.0654L83.9907 60.6147C83.9321 61.2446 84.0273 61.7866 84.2764 62.2407C84.9355 62.2554 85.4775 62.3066 85.9023 62.3945C85.8291 63.1709 86.0122 63.8081 86.4517 64.3062H87.5503H87.9678H89.7476C89.8062 65.0679 89.9893 65.7051 90.2969 66.2178H90.8462H91.3955H93.7246H94.1201H95.7681C96.1343 65.6025 96.3174 64.9653 96.3174 64.3062C97.0059 64.3062 97.5552 64.2622 97.9653 64.1743C98.1704 63.5151 98.2656 62.9219 98.251 62.3945L98.5146 62.2407H99.1958H99.6133H100.031C100.954 62.1968 101.73 62.248 102.36 62.3945C102.829 62.2773 103.239 62.2261 103.59 62.2407C103.854 62.9292 103.942 63.5298 103.854 64.0425L104.14 64.1743L107.545 64.3062C107.37 67.4702 108.014 68.7959 109.479 68.2832C109.508 69.7773 110.189 70.4146 111.522 70.1948C111.508 71.894 112.284 72.5312 113.852 72.1064C115.463 72.3701 116.239 71.689 116.181 70.063H116.598C117.814 70.2095 118.861 70.2095 119.74 70.063C119.901 69.3599 119.997 68.7666 120.026 68.2832C121.52 68.3711 122.157 67.7339 121.938 66.3716C123.402 66.4155 124.091 65.7271 124.003 64.3062C125.438 64.4526 126.12 63.7642 126.046 62.2407H127.277C127.394 63.0024 127.533 63.647 127.694 64.1743C129.32 64.438 130.778 64.3428 132.067 63.8887C132.58 64.0498 133.085 64.0498 133.583 63.8887C133.422 62.3213 131.547 61.5962 127.958 61.7134C127.27 59.2524 127.775 58.1099 129.474 58.2856C129.694 57.4067 129.921 56.7183 130.155 56.2202C131.459 56.4106 132.602 56.3667 133.583 56.0884C133.759 55.356 133.759 54.6675 133.583 54.0229C130.624 54.4185 129.394 53.9204 129.892 52.5288C130.639 52.4556 131.276 52.2285 131.803 51.8477C131.686 50.5293 131.774 49.3867 132.067 48.4199L133.319 48.5518C133.217 49.5625 133.576 50.1997 134.396 50.4634C135.407 50.3901 135.956 49.709 136.044 48.4199C136.718 48.4053 137.267 48.2661 137.692 48.0024C137.267 45.2778 137.904 44.0474 139.604 44.311C139.53 43.3003 139.853 42.707 140.57 42.5312C141.186 42.7656 141.413 43.2197 141.251 43.8936L141.669 44.4429C143.529 43.9741 144.027 45.4829 143.163 48.9692L143.317 50.1997C144.123 51.4009 143.478 52.082 141.383 52.2432C141.281 53.6641 141.332 54.8066 141.537 55.6709C139.867 55.7148 139.091 56.4033 139.208 57.7363C137.802 57.8096 137.157 58.4907 137.274 59.7798L136.879 60.1973C135.634 59.9336 134.579 59.8457 133.715 59.9336C133.349 60.6514 133.217 61.3325 133.319 61.9771L134.132 62.3945C135.231 62.1602 136.234 62.1089 137.143 62.2407C137.582 61.6548 137.721 61.0615 137.56 60.4609C139.201 60.5195 139.933 59.8384 139.757 58.4175L140.021 58.2856C140.695 58.3003 141.244 58.2051 141.669 58C141.64 57.2676 141.684 56.6304 141.801 56.0884C142.431 56.1763 142.98 56.1323 143.449 55.9565V55.2754L143.317 54.8579C143.668 53.9058 143.8 53.0342 143.712 52.2432C144.401 52.1113 144.95 51.9282 145.36 51.6938C145.741 49.5112 145.741 47.5483 145.36 45.8052L145.492 44.5747C144.892 44.2964 144.298 44.1646 143.712 44.1792C143.932 42.436 143.749 40.9272 143.163 39.6528C143.705 37.9097 143.888 36.2617 143.712 34.709L143.317 34.1816C141.808 34.4893 141.164 34.0278 141.383 32.7974L141.933 32.6655C143.339 32.7241 144.481 32.6802 145.36 32.5337C145.609 31.8599 145.705 31.2666 145.646 30.7539L147.294 30.4683C148.466 27.6118 147.96 26.1982 145.778 26.2275C145.573 25.5537 145.434 24.9604 145.36 24.4478C144.921 24.3599 144.555 24.3159 144.262 24.3159H143.866H139.604C139.281 25.0483 139.149 25.6855 139.208 26.2275C137.816 26.2861 136.674 26.2422 135.78 26.0957C135.663 25.627 135.663 25.2168 135.78 24.8652C136.527 24.748 137.165 24.6089 137.692 24.4478L137.824 23.481L137.692 23.2173V22.7998V21.02C138.424 20.7563 139.062 20.5732 139.604 20.4707L139.757 20.0532V19.6577V16.9111L140.021 16.7793C140.695 16.7939 141.244 16.6987 141.669 16.4937C141.684 16.2593 141.728 16.0762 141.801 15.9443V15.395C141.698 15.2632 141.654 15.1313 141.669 14.9995V13.0879V12.6704V12.1211V11.7036L141.801 8.979C141.215 8.49561 140.578 8.3125 139.889 8.42969L139.604 6.6499C138.769 6.48877 138.043 6.4375 137.428 6.49609L136.879 6.36426C135.458 6.61328 134.22 6.61328 133.166 6.36426L132.616 6.49609H132.067H130.573H130.023H129.606L129.342 6.36426L128.925 6.49609H127.826C126.977 6.4668 126.244 6.51807 125.629 6.6499C125.6 7.35303 125.468 7.94629 125.233 8.42969H124.816H124.135H123.717H123.168H122.772H120.026C119.835 7.91699 119.74 7.36768 119.74 6.78174L117.96 6.6499C118.209 4.95068 117.528 4.21826 115.917 4.45264C115.99 3.77881 115.946 3.18555 115.785 2.67285H114.401L111.676 2.54102C112.086 1.09082 111.486 0.402344 109.875 0.475586H109.743H109.875H109.611H109.743H109.479H109.611H109.347H109.479H109.193H109.347H109.062H109.193H108.93H109.062H108.798H108.93H108.644H108.798H108.512H108.644H108.38H108.512H108.249H108.38H108.095H108.249H107.963H108.095H107.831H107.963H107.699H107.831H107.545H107.699H107.414H107.545H107.282H107.414H107.15H107.282H107.018H107.15H106.864H107.018H106.732H106.864H106.601H106.732H106.469H106.601H106.315H106.469H106.183H106.315H106.051H106.183H105.919H106.051H105.766H105.919H105.634H105.766H105.502H105.634H105.37H105.502H105.216H105.37H105.084H105.216H104.953H105.084H104.821H104.953H104.689H104.821H104.535H104.689H104.403H104.535H104.271H104.403H104.271ZM111.676 2.54102C111.588 3.43457 111.72 4.20361 112.072 4.84814H112.489H115.236L115.5 5.13379C115.5 5.71973 115.595 6.2251 115.785 6.6499C117.558 6.7085 118.151 7.30176 117.565 8.42969C117.609 9.19141 117.558 9.87256 117.411 10.4731C116.679 10.4731 116.085 10.6563 115.631 11.0225C115.631 11.6084 115.727 12.1138 115.917 12.5386C117.221 12.8022 117.902 12.2529 117.96 10.8906H118.642H120.443H120.971H123.3H123.717H125.365C125.834 10.1875 126.061 9.49902 126.046 8.8252L127.145 8.69336L127.562 8.8252L128.507 8.979C129.65 8.87646 130.661 8.96436 131.54 9.24268C131.305 10.1069 130.756 10.6123 129.892 10.7588C129.657 11.9014 129.013 12.4434 127.958 12.3848L127.562 12.8022C127.387 13.9595 127.387 14.9189 127.562 15.6807C127.24 16.4863 126.647 16.9917 125.783 17.1968C125.651 17.7827 125.6 18.2808 125.629 18.6909L125.497 19.6577C125.541 20.8589 125.497 21.8623 125.365 22.668C124.97 23.1074 124.516 23.1514 124.003 22.7998C123.944 23.2832 123.944 23.6934 124.003 24.0303C123.476 24.748 123.336 25.5244 123.585 26.3594C124.318 26.6377 124.955 26.7329 125.497 26.645C125.819 25.9272 126.002 25.2827 126.046 24.7114H127.694C129.013 24.5063 129.694 25.1509 129.738 26.645C130.412 26.6157 130.961 26.7036 131.386 26.9087V30.2046L131.803 30.6001C132.843 30.395 133.437 30.7173 133.583 31.5669L133.166 34.1816H132.067L131.803 33.896C131.803 33.2222 131.664 32.6729 131.386 32.248C129.95 32.1309 128.676 32.27 127.562 32.6655C127.313 34.2036 128.544 34.8408 131.254 34.5771L131.386 34.8628C131.371 35.5366 131.466 36.0859 131.671 36.5107L132.067 36.6426C133.341 36.5254 134.44 36.5693 135.363 36.7744V38.1367C136.154 39.499 135.7 40.3267 134 40.6196C133.854 41.0737 133.759 41.4839 133.715 41.8501L134 42.2456C135.07 42.2603 135.568 42.7656 135.495 43.7617L135.231 43.8936L133.451 44.5747C133.51 45.1021 133.466 45.5635 133.319 45.959H132.902H132.484H132.067C131.701 46.1055 131.342 46.1494 130.99 46.0908H130.573H128.112C127.863 45.5342 127.768 44.9849 127.826 44.4429L127.409 44.0254H125.629L125.102 44.4429C124.018 44.1206 123.058 43.9814 122.223 44.0254C120.758 45.915 121.579 46.6475 124.684 46.2227L127.409 46.6401V48.1343C127.76 49.438 127.812 50.6245 127.562 51.6938C126.054 51.811 125.321 52.4995 125.365 53.7593C124.56 53.9351 123.922 54.2573 123.454 54.7261C123.322 55.561 123.637 56.0591 124.398 56.2202C125.409 56.0151 125.958 55.3779 126.046 54.3086H127.277C127.467 55.7295 127.511 56.8721 127.409 57.7363C126.662 57.8389 126.024 58.022 125.497 58.2856L125.365 58.6812V59.0986C125.512 60.1094 125.512 60.981 125.365 61.7134C123.974 61.7427 123.285 62.4238 123.3 63.7568C121.952 63.6689 121.315 64.3062 121.388 65.6685C120.011 65.6978 119.33 66.3862 119.345 67.7339H118.927L116.181 67.8657C115.888 66.7231 115.25 66.042 114.269 65.8223C113.522 66.0273 112.885 66.1152 112.357 66.0859C111.918 67.4482 111.142 67.9023 110.028 67.4482V67.0527V64.5698L110.292 64.3062C111.698 64.3062 112.841 64.2183 113.72 64.0425L114.269 62.1089C116.276 62.5337 117.418 61.9844 117.697 60.4609C116.422 59.8896 115.236 59.7578 114.137 60.0654C113.859 60.71 113.676 61.3032 113.588 61.8452L113.039 61.9771H112.489C111.933 61.8599 111.427 61.8159 110.973 61.8452H110.424H110.028H109.479H109.062H108.644H108.249H107.699H106.732L104.271 61.9771C104.286 60.981 103.964 60.2485 103.305 59.7798C102.763 59.7944 102.265 59.8896 101.811 60.0654C101.137 60.1973 100.587 60.1533 100.163 59.9336H99.7451C99.0713 59.8311 98.522 59.7798 98.0972 59.7798V56.2202L96.1855 55.6709C96.1562 55.0264 96.0684 54.4771 95.9219 54.0229C94.5889 54.0815 93.9443 53.4443 93.9883 52.1113L93.5928 51.9795H92.4941C91.6299 52.0088 90.8975 51.9648 90.2969 51.8477C90.3115 51.291 90.2676 50.7856 90.165 50.3315C88.6855 50.1704 88.041 49.438 88.2314 48.1343C87.7334 47.6948 87.5503 47.1968 87.6821 46.6401C87.228 46.3911 86.8179 46.208 86.4517 46.0908L86.3198 45.4097L86.4517 44.9922L86.3198 44.7285V44.311V43.2124L86.0562 41.0151C84.9136 40.2974 84.1372 40.6636 83.7271 42.1138H82.6284C82.4819 40.6636 81.7935 39.9312 80.563 39.9165C80.5044 38.6421 79.9111 38.0488 78.7832 38.1367L78.3877 37.5874V37.4556V37.5874V37.3237V37.4556V37.1919V37.3237V37.0381V37.1919V37.0381C78.666 36.4082 79.1201 36.1812 79.75 36.3569C80.1309 35.6831 80.4019 35.0898 80.563 34.5771C81.2222 34.5625 81.7715 34.4746 82.2109 34.3135C82.4014 33.0977 82.4014 32.043 82.2109 31.1494L82.4966 30.7539L83.5732 30.6001C83.9395 31.2739 84.1738 31.9185 84.2764 32.5337C85.7266 32.6948 87.001 32.5996 88.0996 32.248C88.4365 30.8711 87.9385 30.2339 86.6055 30.3364C86.4004 29.853 86.3052 29.3989 86.3198 28.9741C86.9351 28.6519 87.5283 28.5127 88.0996 28.5566C88.3633 27.5166 88.3193 26.6011 87.9678 25.8101C87.9824 25.3267 88.0264 24.9604 88.0996 24.7114C89.96 24.6235 90.6484 23.7153 90.165 21.9868C90.4434 20.478 89.8501 20.0166 88.3853 20.6025C87.9458 21.9941 87.8066 23.2759 87.9678 24.4478H86.4517L86.188 24.0303C86.144 23.2979 86.188 22.6606 86.3198 22.1187V21.7012C86.144 19.8555 86.188 18.2588 86.4517 16.9111L86.7373 16.7793L87.9678 16.4937C88.0117 15.146 88.7441 14.4648 90.165 14.4502C90.209 13.6738 90.436 13.0806 90.8462 12.6704L91.6592 12.8022V13.2197C91.7764 13.3076 91.8203 13.3955 91.791 13.4834V16.23C91.9961 17.0649 91.9961 17.7974 91.791 18.4272C91.0586 18.5591 90.4653 18.7422 90.0112 18.9766L90.2969 20.0532C90.8242 20.4048 91.3223 20.5879 91.791 20.6025C92.1572 20.002 92.2524 19.3647 92.0767 18.6909H95.5044C95.7681 19.4233 95.9072 20.0605 95.9219 20.6025C96.5811 20.7344 97.123 20.7856 97.5479 20.7563L97.8335 21.02C97.7603 21.6938 97.8042 22.2432 97.9653 22.668C98.4048 22.7559 98.771 22.7998 99.064 22.7998H100.426C102.624 22.9023 104.403 22.8145 105.766 22.5361C105.956 21.9941 106.051 21.4448 106.051 20.8882L107.831 20.4707C108.021 19.9727 108.109 19.4233 108.095 18.8228L109.875 18.5591C110.548 14.1206 109.955 12.1138 108.095 12.5386C107.772 10.8979 106.725 10.1655 104.953 10.3413H104.821H104.953H104.689H104.821H104.689C103.722 10.8833 103.444 11.6597 103.854 12.6704C104.293 12.7583 104.66 12.8022 104.953 12.8022C105.993 12.6265 106.908 12.6265 107.699 12.8022L107.831 13.3516L107.699 13.769V17.1968C107.67 18.2222 107.121 18.6323 106.051 18.4272C105.963 18.5884 105.868 18.6763 105.766 18.6909C105.751 19.3794 105.663 19.9287 105.502 20.3389H103.986H103.59H103.173H102.624H102.206H101.261H100.844H100.426C99.5767 20.3682 98.8516 20.3242 98.251 20.207C98.2949 18.8154 97.6504 18.1709 96.3174 18.2734C96.2002 16.9404 95.519 16.2593 94.2739 16.23V15.8125V15.1313V14.7139V14.1646V13.769V11.0225C95.021 10.9199 95.6582 10.7368 96.1855 10.4731V10.0557V9.66016V9.24268V8.8252L96.0537 8.01221V7.17725C96.7861 6.92822 97.4673 6.79639 98.0972 6.78174C98.2437 6.02002 98.2949 5.37549 98.251 4.84814C98.9834 4.81885 99.6206 4.87012 100.163 5.00195C100.851 5.0166 101.444 4.96533 101.942 4.84814L102.074 4.45264L102.36 2.80469H102.755L103.305 2.67285L103.722 2.93652H104.14H104.535H104.953H107.282H107.699C108.329 3.08301 108.878 3.12695 109.347 3.06836L110.578 2.54102H111.676ZM95.9219 24.4478L95.7681 24.9971V27.8755C95.7241 28.9009 95.7241 29.7212 95.7681 30.3364C95.0796 30.439 94.4863 30.395 93.9883 30.2046L94.2739 28.6885V28.1392C94.1714 27.5825 94.1201 27.0845 94.1201 26.645C93.4316 26.3228 92.7944 26.2275 92.2085 26.3594L91.791 27.0405V27.458C91.9668 28.4688 92.0181 29.3403 91.9448 30.0728C92.604 30.4097 93.2412 30.4976 93.8564 30.3364C93.959 31.1714 94.23 31.8525 94.6694 32.3799C95.7827 32.5264 96.2441 31.9844 96.0537 30.7539C96.8008 30.71 97.4819 30.5708 98.0972 30.3364L98.251 29.3696V28.9741C98.3535 27.1284 98.2583 25.5757 97.9653 24.3159C97.4966 24.2134 97.0864 24.1621 96.7349 24.1621L95.9219 24.4478ZM104.535 24.1621L103.722 24.7114V27.5898C103.678 28.6738 103.722 29.5894 103.854 30.3364C104.704 30.5854 105.436 30.7246 106.051 30.7539C105.919 31.6621 106.242 32.2041 107.018 32.3799C107.853 32.2334 108.263 31.7354 108.249 30.8857C108.776 30.7686 109.23 30.7246 109.611 30.7539C109.801 30.1094 109.845 29.5161 109.743 28.9741C109.86 28.1245 109.904 27.3921 109.875 26.7769C109.201 26.3667 108.563 26.2715 107.963 26.4912C108.036 28.8936 107.721 30.1753 107.018 30.3364C106.388 30.5122 106.066 30.2852 106.051 29.6553V29.106V26.7769V26.3594V24.7114C105.583 24.4331 105.128 24.25 104.689 24.1621H104.535H104.689H104.535ZM140.307 26.645H140.834H141.251H142.218H142.636H143.031C143.881 26.6011 144.613 26.645 145.229 26.7769C145.331 28.0952 145.243 29.2378 144.965 30.2046H143.866H143.449H141.669C141.303 30.9224 141.164 31.6035 141.251 32.248L139.604 32.6655C139.486 33.2515 139.486 33.7568 139.604 34.1816C140.131 34.2842 140.592 34.2842 140.988 34.1816L141.251 36.5107C141.574 37.8877 140.57 38.4297 138.241 38.1367C137.714 37.5801 137.487 36.9868 137.56 36.3569C136.886 36.1519 136.293 36.064 135.78 36.0933V34.5771V34.0278L135.495 30.6001C134.425 30.5562 133.832 30.1021 133.715 29.2378L133.869 28.8203L134.396 28.6885H136.044H136.461H136.879C137.948 28.7178 138.856 28.6738 139.604 28.5566L139.889 26.645H140.307ZM80.4312 28.6885C80.9731 28.6738 81.4785 28.7178 81.9473 28.8203V30.0728C80.5557 30.6587 80.0503 30.1973 80.4312 28.6885ZM78.7832 30.3364C80.1016 30.3511 80.5117 31.1714 80.0137 32.7974C80.2188 34.189 79.2153 34.6504 77.0034 34.1816C76.3589 33.5518 76.1318 32.4531 76.3223 30.8857C77.3623 30.7686 78.1826 30.5854 78.7832 30.3364ZM102.074 32.1162C101.986 32.2188 101.898 32.2627 101.811 32.248C100.17 32.0723 98.8442 32.2114 97.8335 32.6655C97.8042 34.0718 97.8481 35.2144 97.9653 36.0933C99.2983 36.2983 99.9355 37.0308 99.877 38.2905C103.026 39.2573 104.447 38.5688 104.14 36.2251C104.535 33.0171 103.847 31.6475 102.074 32.1162ZM92.626 34.1816C91.9082 34.8555 91.769 35.5806 92.2085 36.3569H92.626C93.6367 36.5474 94.501 36.5986 95.2188 36.5107C97.2988 34.7529 96.4346 33.9766 92.626 34.1816ZM107.414 34.1816C106.33 34.3574 105.78 34.8994 105.766 35.8076L106.183 36.3569C108.644 36.7671 109.875 36.313 109.875 34.9946C109.171 34.2915 108.351 34.0205 107.414 34.1816ZM142.086 38.8179C142.804 39.521 142.709 39.7993 141.801 39.6528L142.086 38.8179ZM136.198 40.334H136.725C137.677 40.4512 138.454 40.4951 139.054 40.4658C139.728 42.0186 138.637 42.5679 135.78 42.1138C135.634 41.4546 135.634 40.8613 135.78 40.334H136.198ZM134 46.2227C134.909 46.1348 135.363 46.501 135.363 47.3213C135.07 48.1416 134.521 48.2808 133.715 47.7388C133.715 47.1968 133.81 46.6914 134 46.2227ZM86.4517 52.397C87.77 52.2798 88.9126 52.3677 89.8794 52.6606V53.8911C89.3813 54.1108 88.9272 54.2061 88.5171 54.1768C87.8579 55.5244 88.2681 56.2056 89.7476 56.2202V56.9014C89.7769 57.502 89.2275 57.9634 88.0996 58.2856V59.0986C89.3594 59.8896 89.9966 60.7612 90.0112 61.7134C88.605 61.8159 87.4697 61.8159 86.6055 61.7134C86.5176 60.8491 86.1953 60.2046 85.6387 59.7798C84.7744 59.9116 84.3643 59.5967 84.4082 58.835C84.54 58.0586 84.9941 57.6924 85.7705 57.7363V56.9014C84.291 56.5938 83.8369 55.7295 84.4082 54.3086C85.126 54.3379 85.7192 54.1987 86.188 53.8911C86.1587 53.3491 86.2466 52.8511 86.4517 52.397ZM133.869 52.2432C133.693 52.7559 133.642 53.2173 133.715 53.6274C134.535 54.2573 135.128 54.1621 135.495 53.3418C135.114 52.668 134.572 52.3018 133.869 52.2432ZM90.5605 54.4404H90.978H93.7246L93.8564 56.0884C94.5742 56.3228 95.2114 56.4619 95.7681 56.5059V57.8682C96.1343 58.5566 96.3174 59.1938 96.3174 59.7798C97.1963 59.8237 97.7017 60.1899 97.8335 60.8784C97.5991 61.7427 96.9619 62.1528 95.9219 62.1089L95.6362 63.7568C93.4976 63.9473 91.7178 63.8594 90.2969 63.4932C90.2822 62.9658 90.3701 62.5044 90.5605 62.1089C92.9922 62.7534 94.1348 62.0723 93.9883 60.0654C94.2227 58.7031 93.6733 57.8828 92.3403 57.6045C92.3403 56.3008 91.6152 55.7002 90.165 55.8027C90.0771 55.3047 90.0771 54.8506 90.165 54.4404H90.5605ZM120.575 57.8682C119.901 58.3516 119.579 58.9448 119.608 59.6479C120.795 60.4536 121.571 60.1826 121.938 58.835C121.645 58.2344 121.19 57.9121 120.575 57.8682ZM112.204 67.9976C115.001 67.8511 116.144 68.3564 115.631 69.5137C114.445 69.8799 113.302 69.9678 112.204 69.7773C111.984 69.1035 111.984 68.5103 112.204 67.9976ZM173.617 0.607422C173.427 1.17871 173.324 1.69873 173.31 2.16748H172.694H172.233H169.113C168.717 2.68018 168.556 3.2002 168.629 3.72754H168.014H167.245H165.202H164.586H161.928H161.466H159.599C159.232 4.28418 159.079 4.8042 159.137 5.2876C157.028 4.84814 155.988 5.36816 156.017 6.84766C153.805 6.39355 152.765 6.96484 152.897 8.56152C151.74 8.41504 151.168 8.93506 151.183 10.1216C149.821 9.9751 149.352 10.9565 149.777 13.0659C148.268 13.1831 147.697 14.0693 148.063 15.7246C147.77 17.3945 148.341 18.3247 149.777 18.5151C149.323 20.5513 149.843 21.54 151.337 21.4814C151.19 22.6533 151.71 23.1733 152.897 23.0415C152.838 24.1694 153.358 24.7407 154.457 24.7554C154.486 26.1323 155.475 26.6011 157.423 26.1616C157.57 27.6265 158.661 28.1465 160.697 27.7217C160.36 29.8311 160.932 30.9736 162.411 31.1494C161.957 33.1709 162.477 34.1597 163.971 34.1157C163.825 35.3315 164.286 35.793 165.355 35.5C165.429 36.7012 166 37.3237 167.069 37.3677C167.479 39.5063 167.018 40.4951 165.685 40.334C165.744 40.8613 165.692 41.2788 165.531 41.5864H162.719C162.777 40.3853 162.257 39.8652 161.159 40.0264C161.085 39.4404 160.983 38.9204 160.851 38.4663H160.214H159.752H159.137H156.325C156.105 39.0522 156.002 39.5723 156.017 40.0264C155.431 40.0264 154.911 40.1289 154.457 40.334V44.0693C154.428 45.0508 154.479 45.8857 154.611 46.5742C155.153 46.6768 155.622 46.728 156.017 46.728C155.944 48.2222 156.984 48.7422 159.137 48.2881C159.181 48.874 159.284 49.394 159.445 49.8481H160.543H161.005H161.466C162.433 49.8042 163.268 49.8555 163.971 50.002C163.576 52.1406 164.096 53.1807 165.531 53.1221C165.077 55.2168 165.59 56.2495 167.069 56.2202C167.04 57.4214 167.56 57.9414 168.629 57.7803C168.615 58.9229 169.186 59.4941 170.343 59.4941C170.724 61.1934 170.204 62.1309 168.783 62.3066C168.666 63.6982 167.685 64.167 165.839 63.7129C165.619 64.8408 164.997 65.4634 163.971 65.5806V70.1069C164.542 70.3267 165.062 70.4805 165.531 70.5684C165.575 71.916 166.505 72.3848 168.322 71.9746H169.574C170.541 72.0039 171.369 71.9526 172.057 71.8208C172.013 70.7515 172.533 70.2314 173.617 70.2607C173.559 69.1768 174.079 68.6567 175.177 68.7007C175.192 67.4995 175.712 66.9795 176.737 67.1406L176.891 66.833C176.847 65.7051 176.898 64.7676 177.045 64.0205H178.297H181.417L181.725 62.4604H182.187C184.413 62.563 186.237 62.4604 187.658 62.1528C187.658 61.6108 187.76 61.1934 187.965 60.9004H190.602C190.719 61.999 191.291 62.5703 192.316 62.6143C192.345 63.9912 193.334 64.46 195.282 64.0205C195.517 64.6211 195.67 65.1411 195.744 65.5806H198.556L198.864 67.1406H199.325H199.962H200.424H203.544C203.573 65.9395 204.145 65.3682 205.258 65.4268V62.3066C204.057 62.2773 203.485 61.7061 203.544 60.5928C202.489 60.6953 201.969 60.2266 201.984 59.1865C201.032 58.8936 200.043 58.791 199.018 58.8789C198.988 58.2344 198.834 57.7144 198.556 57.3188H197.941H197.458H194.359C194.154 56.3521 194.096 55.5244 194.184 54.8359C195.136 54.499 196.022 54.3892 196.842 54.5063C197.179 54.9751 197.384 55.4438 197.458 55.9126C199.303 56.2495 200.966 56.2495 202.445 55.9126H203.544C203.515 54.814 204.086 54.2939 205.258 54.3525C205.17 53.2686 205.639 52.8071 206.664 52.9683L206.972 52.3311L206.818 52.0234V51.562V50.9248V48.1343C205.631 48.105 205.111 47.585 205.258 46.5742L204.796 46.2666H204.313H203.852H203.39H202.292H201.83H201.369C200.387 46.2227 199.552 46.2739 198.864 46.4204C198.717 47.0356 198.563 47.5557 198.402 47.9805H197.941H196.073C195.78 46.999 195.67 46.1128 195.744 45.3218L196.381 45.168H196.842H197.304C198.534 45.2119 199.574 45.1606 200.424 45.0142C200.541 44.4282 200.592 43.9082 200.578 43.4541C201.779 43.6006 202.819 43.5493 203.698 43.3003C205.265 43.6079 206.664 43.6592 207.895 43.4541C208.129 44.0547 208.239 44.5747 208.224 45.0142L208.686 45.168H209.301H209.784H210.553H211.322H211.806H213.673H214.135H214.596C215.827 45.2119 216.867 45.1606 217.716 45.0142L218.024 43.4541C219.928 44.0254 220.968 43.5566 221.144 42.0479C222.316 41.96 222.836 41.3887 222.704 40.334C224.184 40.4219 224.704 39.3818 224.264 37.2139C224.909 37.2285 225.429 37.0747 225.824 36.7524V36.5986V36.7524V36.4448V36.5986V36.291V36.4448V36.1372V36.291V35.9834V36.1372V35.8296V35.9834V35.6538V35.8296V35.5V35.6538V35.3462V35.5V35.1924V35.3462V35.0386V35.1924V34.8848V35.0386V34.731V34.8848V34.5771V34.731V34.4233V34.5771V34.2695V34.4233V34.1157V34.2695V33.9399V34.1157V33.7861V33.9399V33.6323V33.7861V33.4785V33.6323V33.3247V33.4785V33.1709V33.3247V33.0171V33.1709V32.8633V33.0171V32.7095V32.8633V32.5557V32.7095V32.5557C225.238 32.1748 224.667 32.0137 224.11 32.0723C224.242 31.0029 224.293 30.124 224.264 29.4355C223.708 29.0547 223.188 28.9009 222.704 28.9741V26.3154C222.089 25.9346 221.518 25.7295 220.99 25.7002C221.078 24.6016 220.558 24.0815 219.43 24.1401C219.547 22.9683 219.079 22.5508 218.024 22.8877C217.965 21.7305 217.453 21.1079 216.486 21.02L216.31 20.7124V20.229V18.2075C215.739 17.9878 215.226 17.8853 214.772 17.8999C215.211 15.7466 214.691 14.7065 213.212 14.7798C213.3 13.6519 212.831 13.1318 211.806 13.2197L211.322 11.6597H208.532L208.224 10.1216H205.412L205.104 8.56152C203.771 8.37109 202.68 8.31982 201.83 8.40771C201.068 7.95361 200.497 7.43359 200.116 6.84766H199.655H199.171H194.359C194.184 6.24707 194.074 5.77832 194.03 5.44141C192.829 5.26562 191.847 5.21436 191.085 5.2876C191.085 4.70166 190.976 4.18164 190.756 3.72754H187.965C187.965 3.1416 187.863 2.62158 187.658 2.16748H186.405H183.285L182.978 0.607422H180.802H179.088H178.297H177.836H177.199H176.737H173.617ZM178.913 2.32129L179.242 2.4751H179.704H182.824C183 3.11963 183.307 3.63965 183.747 4.03516H184.999H185.46H187.482L187.965 5.59521C189.723 5.27295 190.653 5.58057 190.756 6.51807L190.602 7.00146L190.141 6.84766H189.679C188.698 7.02344 187.863 7.07471 187.174 7.00146C186.486 7.48486 186.127 8.05615 186.098 8.71533L186.405 8.86914H187.658H190.756C191.122 10.041 189.723 10.4585 186.559 10.1216C185.724 8.53955 184.53 8.12207 182.978 8.86914C182.978 9.77734 182.56 10.1948 181.725 10.1216C180.421 10.1655 179.484 9.64551 178.913 8.56152H177.528C176.898 9.49902 177.104 10.1729 178.144 10.583C178.231 11.5938 178.803 12.1138 179.857 12.1431V12.7583C179.594 13.0513 179.279 13.2051 178.913 13.2197C178.429 14.084 177.858 14.7065 177.199 15.0874C176.979 15.6147 176.723 16.0322 176.43 16.3398C175.595 16.3252 174.87 16.3765 174.254 16.4937C173.595 17.8267 172.138 18.2954 169.882 17.8999C169.208 18.354 168.791 18.874 168.629 19.46C167.619 19.4307 166.74 19.5845 165.993 19.9214L165.685 20.5586L165.531 21.3276C164.989 21.4302 164.726 21.7451 164.74 22.2725L165.531 22.5801C165.531 21.5986 165.993 21.2324 166.916 21.4814C167.165 22.5215 166.703 22.939 165.531 22.7339V24.2939C166.059 24.543 166.52 24.6455 166.916 24.6016C166.989 25.5098 167.355 26.0298 168.014 26.1616C168.791 26.0591 169.157 25.5391 169.113 24.6016H170.189C169.853 26.6816 170.373 27.7729 171.75 27.8755C171.779 29.2524 172.819 29.7212 174.87 29.2817C174.943 30.5269 175.514 31.0981 176.583 30.9956C176.481 31.8745 176.796 32.3945 177.528 32.5557C178.305 32.2188 178.664 31.6475 178.605 30.8418L179.704 30.9956C179.66 32.1821 180.18 32.7021 181.264 32.5557C181.22 33.7129 181.74 34.2329 182.824 34.1157C182.824 34.7017 182.978 35.2144 183.285 35.6538H184.384L184.845 35.1924C184.772 34.2549 185.241 33.8374 186.251 33.9399C186.588 32.6362 186.12 32.0137 184.845 32.0723C184.875 30.915 184.354 30.395 183.285 30.5122C183.314 29.5747 182.948 29.062 182.187 28.9741C181.396 29.2231 181.088 29.7358 181.264 30.5122H180.165C180.062 29.4282 179.491 28.8569 178.451 28.7983C178.437 27.7729 177.917 27.2603 176.891 27.2603C176.876 26.2202 176.356 25.7002 175.331 25.7002C175.272 24.7773 175.69 24.4111 176.583 24.6016C177.213 22.5947 177.836 22.5947 178.451 24.6016H179.704C179.953 24.0742 180.055 23.6055 180.011 23.1953C180.934 23.1367 181.505 22.7192 181.725 21.9429C181.33 21.2251 180.758 20.9175 180.011 21.02V20.0752C181.696 19.958 182.838 19.6504 183.439 19.1523C184.245 19.6797 184.765 20.4048 184.999 21.3276C185.263 21.3569 185.468 21.4082 185.614 21.4814C186.991 21.2031 188.185 21.1519 189.196 21.3276C189.65 23.686 190.902 23.9497 192.953 22.1187L193.876 22.2725L194.03 21.3276C192.257 21.0054 190.756 20.9541 189.525 21.1738L189.196 19.6138H188.734H187.965H187.482C186.339 19.394 185.358 19.3428 184.538 19.46C184.596 18.9326 184.545 18.4639 184.384 18.0537C182.509 18.3613 181.52 17.8413 181.417 16.4937C180.041 16.3765 179.572 15.4463 180.011 13.7031C180.553 13.542 181.022 13.4907 181.417 13.5493C181.447 12.3481 182.018 11.7769 183.131 11.8354C183.029 10.4438 183.966 9.9751 185.944 10.4292C185.636 12.6851 186.149 13.7251 187.482 13.5493C187.658 14.1646 187.768 14.6772 187.812 15.0874H190.602C190.543 16.5229 191.583 17.043 193.722 16.6475C193.883 17.2773 193.986 17.7974 194.03 18.2075C195.861 18.5884 197.523 18.4858 199.018 17.8999C198.563 16.0688 198.93 15.1313 200.116 15.0874C200.263 15.7173 200.314 16.2886 200.27 16.8013V18.8447C200.226 19.7969 200.277 20.6245 200.424 21.3276C201.391 21.2104 202.013 20.7417 202.292 19.9214H202.753L203.39 19.7676C205.207 19.958 206.767 19.8555 208.07 19.46L207.433 18.2075C204.679 18.4126 202.863 17.4824 201.984 15.417C201.032 14.9336 200.46 14.2524 200.27 13.3735C199.303 13.1978 198.681 12.6851 198.402 11.8354C197.743 11.7183 197.326 11.4033 197.15 10.8906C196.11 10.5537 195.692 9.87988 195.897 8.86914H197.15H200.27L200.731 9.79199C202.182 10.4219 203.588 10.6343 204.95 10.4292C205.683 11.6597 206.723 12.1797 208.07 11.9893C208.803 13.1025 209.835 13.6226 211.168 13.5493C211.315 14.604 211.886 15.1753 212.882 15.2632C212.75 16.7866 213.271 17.8193 214.442 18.3613V19.46C213.871 19.5918 213.3 19.6431 212.729 19.6138H212.267L211.168 19.46H210.707H210.246H209.147L208.224 19.6138V21.1738L208.686 21.3276C209.315 21.4741 209.887 21.5254 210.399 21.4814H210.861C212.077 21.291 213.117 21.2397 213.981 21.3276C214.42 22.104 214.787 22.6753 215.08 23.0415H217.716L218.024 23.9863L218.507 24.2939L218.969 24.6016C219.599 25.4072 220.221 26.0298 220.836 26.4692C220.807 27.2017 220.807 27.8242 220.836 28.3369C222.038 29.2158 222.711 30.4097 222.858 31.9185C224.088 32.6655 224.403 34.3281 223.803 36.9062C223.041 36.9502 222.521 37.2651 222.243 37.8511C222.36 38.5835 222.411 39.2573 222.396 39.8726C221.371 40.063 220.8 40.6343 220.683 41.5864C219.203 41.4546 218.163 41.9746 217.562 43.1465L216.793 43.3003C215.709 43.1245 214.772 43.1245 213.981 43.3003H213.52L213.036 43.1465H212.421H211.959H211.322H208.532L208.07 41.5864C206.195 42.0405 205.207 41.5718 205.104 40.1802L204.005 40.0264C203.551 40.5537 203.295 41.0737 203.236 41.5864H201.984L200.885 41.894C200.578 42.978 199.333 43.4468 197.15 43.3003C194.235 45.5708 191.796 45.5708 189.833 43.3003C186.317 43.769 183.93 43.1978 182.67 41.5864C180.048 42.0259 178.019 41.5059 176.583 40.0264C174.635 40.2168 173.075 39.748 171.903 38.6201L170.519 38.3125C170.402 37.7852 170.241 37.3677 170.036 37.0601C169.054 36.8989 168.227 36.8477 167.553 36.9062L167.245 35.9834L166.608 35.3462C164.762 34.5845 163.935 33.1855 164.125 31.1494C163.612 30.8125 163.144 30.6001 162.719 30.5122L162.565 28.4907C162.946 26.9966 162.792 25.6489 162.104 24.4478H161.005C160.258 26.7476 158.852 26.6963 156.786 24.2939C155.512 24.5576 154.735 24.1401 154.457 23.0415C152.333 22.1919 151.344 20.6831 151.491 18.5151C151.007 18.1782 150.546 17.9731 150.106 17.8999V17.2847V16.8013V13.7031C150.766 13.249 151.278 12.7803 151.645 12.2969C151.615 10.9199 152.084 9.77734 153.051 8.86914H154.611L156.017 8.71533C155.929 9.84326 156.5 10.5171 157.731 10.7368L157.577 11.6597C156.537 11.5718 156.017 11.9893 156.017 12.9121C156.383 13.4248 156.852 13.6372 157.423 13.5493C157.541 14.7212 158.112 15.2339 159.137 15.0874C159.152 16.2007 159.723 16.8306 160.851 16.9771C160.778 17.9146 161.195 18.376 162.104 18.3613C162.25 18.2441 162.404 18.1929 162.565 18.2075C162.521 17.0942 162.99 16.5742 163.971 16.6475C164.132 15.5049 164.755 14.9336 165.839 14.9336V13.5493C163.847 12.8755 163.795 12.3042 165.685 11.8354C166.139 9.71143 166.71 9.7627 167.399 11.9893L168.783 11.8354C169.179 10.6196 168.717 9.98975 167.399 9.9458C167.428 9.06689 167.948 8.60547 168.959 8.56152C168.93 7.3457 169.757 6.87695 171.442 7.15527C172.042 8.83984 173.185 9.35986 174.87 8.71533C176.349 8.86182 176.767 8.29053 176.122 7.00146H175.661C175.265 6.86963 174.848 6.81836 174.408 6.84766H173.947H171.903C171.64 6.26172 171.332 5.79297 170.98 5.44141C169.677 5.63184 169.003 5.21436 168.959 4.18896C170.116 3.82275 171.208 3.77148 172.233 4.03516C173.141 3.80078 173.654 3.28076 173.771 2.4751H174.254H174.716H175.968C176.92 2.51904 177.748 2.46777 178.451 2.32129H178.913ZM178.451 3.72754C178.188 4.35742 178.136 4.97998 178.297 5.59521C179.323 5.771 180.209 5.82227 180.956 5.74902C182.377 4.12305 181.542 3.44922 178.451 3.72754ZM160.06 5.74902C159.782 6.15918 159.628 6.10791 159.599 5.59521L160.06 5.74902ZM161.312 5.59521C162.821 6.13721 162.77 6.55469 161.159 6.84766C161.071 6.33496 161.122 5.91748 161.312 5.59521ZM164.433 5.59521C165.355 5.58057 165.663 5.99805 165.355 6.84766C164.301 6.90625 163.993 6.48877 164.433 5.59521ZM191.239 7.15527C192.279 7.33105 193.158 7.38232 193.876 7.30908C193.993 8.27588 193.583 8.69336 192.646 8.56152C191.503 8.75195 190.983 8.33447 191.085 7.30908L191.239 7.15527ZM156.479 7.30908C158.441 7.76318 158.339 8.12939 156.171 8.40771L156.479 7.30908ZM159.599 7.30908C161.342 7.67529 161.342 8.0415 159.599 8.40771V7.30908ZM165.839 7.30908C167.802 7.67529 167.802 8.0415 165.839 8.40771V7.30908ZM159.137 8.86914L159.291 9.63818C158.339 10.312 157.921 10.0557 158.039 8.86914H159.137ZM164.433 8.86914C165.121 8.7666 165.487 9.02295 165.531 9.63818C165.165 10.1069 164.748 10.2095 164.279 9.9458L164.433 8.86914ZM170.519 10.1216C169.992 11.4106 170.402 12.0332 171.75 11.9893C171.823 12.5752 171.925 13.0952 172.057 13.5493H172.541H173.002H176.122C177.001 13.0366 177.104 12.4067 176.43 11.6597C175.551 11.6157 175.082 11.103 175.023 10.1216H174.408H173.947H173.31H170.519ZM159.599 10.4292C161.488 10.8394 161.488 11.2495 159.599 11.6597C159.496 11.1616 159.496 10.7515 159.599 10.4292ZM162.719 10.4292C163.231 10.4292 163.649 10.4805 163.971 10.583C164.015 11.3301 163.7 11.689 163.026 11.6597C162.719 11.2788 162.616 10.8687 162.719 10.4292ZM191.239 10.4292H191.701H193.722C194.088 11.6743 193.261 12.0845 191.239 11.6597L191.085 10.583L191.239 10.4292ZM158.039 11.9893H159.137C158.991 13.9375 158.573 13.9888 157.885 12.1431L158.039 11.9893ZM161.159 11.9893C161.671 11.9893 162.089 12.0405 162.411 12.1431C162.367 13.1099 161.95 13.3662 161.159 12.9121C161.085 12.5752 161.085 12.2676 161.159 11.9893ZM188.119 11.9893H188.581H190.602C190.895 12.8389 190.587 13.249 189.679 13.2197C188.683 13.4395 188.061 13.1318 187.812 12.2969L188.119 11.9893ZM196.996 11.9893C197.172 13.1025 196.601 13.5127 195.282 13.2197C194.345 13.249 194.037 12.8389 194.359 11.9893H196.996ZM203.698 13.2197C202.907 14.8896 203.896 15.5122 206.664 15.0874C207.235 13.3882 206.247 12.7656 203.698 13.2197ZM159.752 13.5493C160.734 13.5347 160.998 13.9448 160.543 14.7798C159.606 14.7651 159.342 14.355 159.752 13.5493ZM162.873 13.5493C163.795 13.5347 164.11 13.9448 163.817 14.7798C162.792 14.8091 162.477 14.3989 162.873 13.5493ZM191.239 13.5493H191.701H193.722L194.03 14.3184C195.993 15.4316 196.103 16.1055 194.359 16.3398C194.198 15.6514 193.935 15.1313 193.568 14.7798H193.107H191.239L191.085 13.7031L191.239 13.5493ZM197.458 13.5493C198.395 13.5493 198.761 13.9595 198.556 14.7798C197.545 14.8677 197.179 14.4575 197.458 13.5493ZM175.485 18.2075C177.213 18.7642 177.162 19.1816 175.331 19.46C175.272 18.9619 175.324 18.5444 175.485 18.2075ZM171.75 19.9214C171.925 20.7417 171.618 21.1079 170.827 21.02C170.578 20.6392 170.526 20.2729 170.673 19.9214H171.75ZM173.771 19.9214C175.529 20.2876 175.529 20.6538 173.771 21.02V19.9214ZM176.891 19.9214C178.825 20.3169 178.825 20.6831 176.891 21.02V19.9214ZM169.113 21.4814C170.944 21.877 170.944 22.2944 169.113 22.7339L168.959 21.6353L169.113 21.4814ZM172.233 21.4814C172.746 21.4961 173.156 21.5474 173.463 21.6353C172.79 23.4077 172.379 23.3564 172.233 21.4814ZM176.43 21.4814C176.664 22.4775 176.298 22.8438 175.331 22.5801V21.4814H176.43ZM179.704 21.4814V22.5801C178.708 22.8145 178.341 22.4482 178.605 21.4814H179.704ZM194.03 22.7339C193.913 23.3491 193.913 23.8691 194.03 24.2939C195.07 24.6162 196.059 24.7188 196.996 24.6016C197.289 25.3779 197.758 25.8979 198.402 26.1616C198.725 27.0845 199.245 27.3408 199.962 26.9307L200.424 26.7769C200.717 25.2534 200.666 23.9058 200.27 22.7339C199.157 22.6021 198.534 23.1221 198.402 24.2939H197.458C197.545 22.7998 196.403 22.2798 194.03 22.7339ZM203.698 22.7339C203.156 23.9644 203.522 24.5869 204.796 24.6016C204.943 26.0957 206.085 26.6157 208.224 26.1616C208.766 24.8579 208.349 24.2354 206.972 24.2939L206.664 22.7339H206.181H205.719H203.698ZM168.629 23.0415V24.1401C167.648 24.3745 167.289 24.0083 167.553 23.0415H168.629ZM170.673 23.0415C172.504 23.437 172.504 23.8545 170.673 24.2939C170.57 23.8105 170.57 23.3931 170.673 23.0415ZM173.771 23.0415C174.767 22.9683 175.133 23.3857 174.87 24.2939C173.961 24.2793 173.595 23.8618 173.771 23.0415ZM162.719 24.2939C163.744 24.0303 163.744 23.7666 162.719 23.5029V24.2939ZM184.691 24.2939C184.179 25.5244 184.596 26.1982 185.944 26.3154C186.105 27.8242 187.189 28.2417 189.196 27.5679C189.738 26.4106 189.328 25.7881 187.965 25.7002C187.965 25.1582 187.863 24.6895 187.658 24.2939H187.174H186.713H184.691ZM175.023 26.3154C174.994 27.2822 174.577 27.5386 173.771 27.0845C173.742 26.7622 173.8 26.4546 173.947 26.1616L175.023 26.3154ZM200.731 27.4141C199.999 28.6299 200.365 29.2524 201.83 29.2817C201.859 30.4829 202.482 31.0029 203.698 30.8418C203.595 29.7285 203.024 29.106 201.984 28.9741C202.072 27.9487 201.654 27.4287 200.731 27.4141ZM175.485 27.7217C177.213 28.1904 177.162 28.6079 175.331 28.9741C175.346 28.4614 175.397 28.0439 175.485 27.7217ZM214.772 28.9741C214.391 30.1753 214.281 31.2593 214.442 32.2261C215.556 32.3579 216.076 32.8779 216.002 33.7861L216.486 34.1157C218.83 34.5405 219.811 33.7568 219.43 31.7646C219.342 30.8271 218.822 30.3584 217.87 30.3584C217.855 28.9814 216.823 28.52 214.772 28.9741ZM177.045 29.2817C178.876 29.7798 178.825 30.1899 176.891 30.5122C176.906 29.9995 176.957 29.5894 177.045 29.2817ZM181.725 30.9956H182.824C182.663 32.856 182.245 32.9072 181.571 31.1494L181.725 30.9956ZM203.852 30.8418C203.515 31.4717 203.361 32.0942 203.39 32.7095C203.522 33.5884 204.093 34.1084 205.104 34.2695C204.694 36.3203 204.796 38.1367 205.412 39.7188C205.954 39.7334 206.422 39.6309 206.818 39.4111V38.9277V34.1157H208.07C208.275 36.0054 209.469 36.3643 211.652 35.1924V34.1157C210.524 33.7202 209.843 33.0391 209.608 32.0723C207.455 31.6328 206.422 32.2041 206.51 33.7861H205.258C205.668 31.8672 205.199 30.8857 203.852 30.8418ZM184.384 32.5557C184.574 33.3467 184.259 33.7056 183.439 33.6323C183.205 33.2661 183.153 32.9072 183.285 32.5557H184.384ZM194.513 33.6323C193.781 34.6577 193.568 35.749 193.876 36.9062C194.462 37.126 194.982 37.2285 195.436 37.2139C195.392 38.708 196.483 39.228 198.71 38.7739C198.842 37.646 199.464 37.0234 200.578 36.9062V35.6538C200.05 35.4048 199.582 35.3022 199.171 35.3462C199.259 33.8813 197.707 33.3101 194.513 33.6323ZM159.137 40.334C159.489 41.6377 158.815 42.1064 157.116 41.7402C156.398 41.5645 156.186 41.0957 156.479 40.334H159.137ZM172.541 43.4541C173.493 43.3809 174.32 43.4834 175.023 43.7617C175.463 46.1494 174.584 46.9844 172.387 46.2666C171.874 45.2266 171.925 44.2891 172.541 43.4541ZM184.845 46.728C187.306 46.2886 188.244 47.1162 187.658 49.2109C186.676 49.6211 185.739 49.731 184.845 49.5405C184.625 48.4565 184.625 47.519 184.845 46.728ZM181.264 51.4082C182.025 52.9902 181.762 53.9204 180.473 54.1987C179.228 54.6235 177.982 54.001 176.737 52.3311C177.089 51.4229 177.924 51.064 179.242 51.2544L181.264 51.4082Z" fill="black"/>
</svg>
