<svg width="35" height="35" viewBox="0 0 35 35" fill="none" xmlns="http://www.w3.org/2000/svg">
<path d="M16.887 0.0256386C15.1216 0.211533 13.6112 1.19021 13.0629 2.50513C12.8984 2.89333 12.86 3.10656 12.86 3.6041C12.86 3.99502 12.8683 4.08523 12.9231 4.28753C13.0821 4.85068 13.3452 5.30448 13.7756 5.74461C14.0689 6.05079 14.3266 6.25035 14.683 6.45811L14.927 6.603L13.814 6.6194C13.2 6.63034 12.0952 6.63854 11.3606 6.63854C10.5163 6.63854 10.0173 6.64948 10.0064 6.66588C9.99816 6.67955 9.75418 7.35478 9.46909 8.16123C8.92632 9.68938 6.29196 17.1142 5.0529 20.6079C4.0167 23.5275 3.03259 26.3023 2.13893 28.8228C0.228265 34.2082 -0.015708 34.9108 0.000739669 34.9272C0.0281524 34.9545 34.9711 34.9928 34.9986 34.9655C35.0123 34.9518 34.9273 34.6702 34.8012 34.3149C34.6778 33.9704 34.4667 33.3799 34.3352 33.0054C34.2008 32.6281 33.8938 31.7615 33.6498 31.0781C33.4059 30.3947 33.0687 29.4406 32.896 28.9595C32.26 27.1689 31.805 25.8895 31.3664 24.6538C31.1169 23.954 30.5878 22.4587 30.1849 21.3324C29.7847 20.2033 28.4414 16.4226 27.1969 12.9261L24.9381 6.5702L22.545 6.5784L20.1491 6.58933L20.4232 6.42531C21.2182 5.94691 21.7993 5.26894 22.0543 4.5281C22.1804 4.15631 22.2023 4.00322 22.1996 3.57676C22.1996 3.24324 22.1859 3.13663 22.1283 2.91246C21.7253 1.38704 20.1134 0.230671 18.1096 0.0256386C17.7861 -0.00989914 17.2104 -0.007164 16.887 0.0256386ZM17.8848 1.44445C18.7236 1.53193 19.4912 1.90918 19.9216 2.45046C20.5603 3.24871 20.4835 4.24106 19.7269 4.94909C19.4912 5.17052 19.3459 5.27441 19.0416 5.42476C18.1507 5.86489 16.9637 5.87583 16.0618 5.4521C15.3491 5.11585 14.8996 4.61831 14.7488 3.99229C14.6802 3.70798 14.7022 3.27878 14.8009 3.01908C15.2038 1.96386 16.495 1.30229 17.8848 1.44445Z" fill="black"/>
</svg>
