<svg width="371" height="157" viewBox="0 0 371 157" fill="none" xmlns="http://www.w3.org/2000/svg">
<g filter="url(#filter0_d_4_2)">
<path d="M10 56.1091L25.1034 81.6828L31.145 75.888L14.6564 51.3219L10 56.1091Z" fill="url(#paint0_linear_4_2)"/>
<path d="M234.783 35.9513L234.153 39.3533L241.328 36.959L240.447 32.8019L234.784 35.9513H234.783Z" fill="#0071B9"/>
<path d="M192.494 12.8981L169.211 39.6059L176.007 37.7168L198.159 10L192.496 12.8981H192.494Z" fill="url(#paint1_linear_4_2)"/>
<path d="M317.221 49.4314L322.884 46.4084L321.248 60.7699L317.221 49.4314Z" fill="#1D2C5E"/>
<path d="M281.603 58.6283L286.763 59.7623L293.182 56.6129L287.519 54.4713L281.603 58.6283Z" fill="#1D2C5E"/>
<path d="M106.408 43.5103L107.164 60.0135L114.338 57.2417L112.199 40.3609L106.41 43.5103H106.408Z" fill="url(#paint2_linear_4_2)"/>
<path d="M287.14 38.4719L281.477 41.6212L281.603 58.6283L287.392 55.7302L289.155 47.4161L287.141 38.4719H287.14Z" fill="url(#paint3_linear_4_2)"/>
<path d="M286.386 59.7623L280.093 115.697L290.162 113.682L292.049 56.7392L286.386 59.7623Z" fill="#312370"/>
<path d="M298.594 118.342L298.846 125.901L318.103 132.074L323.892 129.051L304.888 114.312L285.758 112.674L280.095 115.697L298.595 118.342H298.594Z" fill="#21386E"/>
<path d="M227.106 104.989L231.763 102.469L234.909 108.013L239.315 105.619L240.195 112.925L268.261 117.965L273.799 114.816L235.16 91.2572L207.722 95.9181L202.437 101.083L227.105 104.989H227.106Z" fill="#21386E"/>
<path d="M218.17 36.2039L212.506 39.3532L202.438 101.084L208.101 98.0611L217.792 63.4168L218.17 36.2052V36.2039Z" fill="url(#paint4_linear_4_2)"/>
<path d="M173.364 44.518L168.833 46.9122L169.21 48.4238L179.908 41.6212L175.251 36.5814L169.21 39.6045L173.363 44.518H173.364Z" fill="#1D2C5E"/>
<path d="M185.572 117.461L139.886 94.7841L145.549 90.3745L191.235 114.31L185.572 117.46V117.461Z" fill="#21386E"/>
<path d="M144.165 33.0545L137.243 46.1558L144.543 44.0141L149.828 29.9038L144.165 33.0532V33.0545Z" fill="#1D2C5E"/>
<path d="M81.2364 87.3514L75.4471 91.3821C75.4471 91.3821 76.7062 97.9335 78.3424 102.468C79.9787 107.004 83.7545 110.657 83.7545 110.657C86.2713 113.051 89.1666 114.814 92.5653 115.822C98.9841 117.711 106.283 116.452 112.577 112.42C114.214 111.412 116.479 109.774 117.863 108.389C111.697 112.169 81.2391 87.35 81.2391 87.35L81.2364 87.3514Z" fill="url(#paint5_linear_4_2)"/>
<path d="M112.575 58.7546L117.861 117.587L139.76 114.438L145.549 111.415L118.49 55.2277L112.952 57.1168L107.163 60.0149L112.575 58.7546Z" fill="#1D2C5E"/>
<path d="M30.7665 79.1636L55.1826 134.47L78.3411 127.037L84.0042 123.257L35.9262 72.8636L29.8846 76.5168L25.102 81.6815L30.7651 79.1623L30.7665 79.1636Z" fill="url(#paint6_linear_4_2)"/>
<path d="M272.289 105.241L272.666 108.013C274.68 107.76 276.693 107.509 278.582 106.879C280.721 106.123 285.253 104.107 286.888 102.596C286.132 102.848 275.56 105.619 272.288 105.241" fill="#1D2C5E"/>
<path d="M190.355 91.1309L191.235 95.5406C195.892 94.7841 199.92 93.1463 203.947 90.7534C206.463 89.2418 209.106 87.1002 209.988 86.47C209.359 86.8476 190.355 91.1309 190.355 91.1309Z" fill="#1D2C5E"/>
<path d="M201.808 69.2103L201.556 69.4629C201.682 69.4629 201.808 69.3366 201.808 69.2103Z" fill="#7D7F68"/>
<path d="M209.36 62.4078L213.639 57.7469L212.129 59.2584V59.1321L210.87 60.5173L206.591 65.0533L210.618 68.7065L211.374 64.1705L213.387 65.9347L209.36 62.4078Z" fill="#7D7F68"/>
<path d="M209.36 62.4078L213.387 65.9347L214.897 56.3603L213.638 57.7456L209.359 62.4064L209.36 62.4078Z" fill="#7D7F68"/>
<path d="M191.866 56.7392C189.223 55.7315 185.573 55.9828 183.56 58.2507C183.057 58.7546 182.176 60.0149 181.924 60.645C183.811 59.1335 187.336 58.7559 189.476 59.6373L191.867 56.7392H191.866Z" fill="#7D7F68"/>
<path d="M72.8028 66.061C72.5504 64.5494 71.0404 63.2891 70.286 62.9116C69.027 62.2815 66.6364 62.1552 65.0001 62.5341C65.2525 63.5418 65.6296 64.802 65.7558 65.3059C66.3854 65.4322 67.5182 65.5585 68.1478 65.8097C68.9035 66.1873 70.1612 66.9437 70.4136 68.5815C70.7907 70.5969 70.6659 72.6123 69.784 74.1252C72.176 71.8572 73.3075 69.338 72.8042 66.0623" fill="#7D7F68"/>
<path d="M214.897 54.5975L207.094 62.1565L214.52 68.8341L214.897 54.5989V54.5975Z" fill="#1E2D5F"/>
<path d="M61.5377 129.195L59.7753 125.164L36.6182 73.5114L36.1148 72.5037L35.1081 73.0075L34.3524 73.3851L30.1994 75.4004C29.5698 74.3927 28.5631 72.6286 27.9336 71.4946L18.6195 55.7465L16.2275 51.5894L20.2544 49.0702C24.0302 46.676 28.3094 44.4093 33.092 42.3926C42.4061 38.4868 51.845 36.3451 60.5296 36.3451C63.4249 36.3451 66.1927 36.5977 68.7108 36.9753C72.99 37.4791 77.0169 38.8644 80.2894 41.1323C85.1981 43.9041 89.1002 48.1875 91.2397 53.2259C93.0022 57.383 93.3793 62.2964 92.2465 67.3362L91.6169 70.3593L94.1337 68.5952C95.7699 67.3349 97.5324 66.3272 99.4196 65.5721C102.692 64.1869 106.091 63.4304 109.488 63.4304C112.885 63.4304 115.781 64.0606 118.55 65.3195L120.312 66.0759L120.186 64.0606L119.43 55.6202L119.304 54.235L118.045 54.6125L114.143 55.6202L113.514 41.2586L142.209 32.0618L141.957 43.274L144.096 43.7778L150.389 31.8092L169.142 48.4387L169.898 49.1952L170.653 48.4387C173.17 46.0445 176.316 44.0291 179.715 42.6439L181.099 42.0137L180.092 40.7534L176.694 36.5964L198.22 11.7818L209.547 28.6626L192.304 37.9857L188.529 40.0011L192.934 40.1274C201.115 40.2537 208.414 43.7806 213.323 49.828L215.086 52.096L216.219 53.4812L214.331 55.4966L213.072 56.8818L208.793 61.5427L208.037 62.4241L208.918 63.1805L212.945 66.8337L214.455 68.219L214.832 66.2036L216.342 56.6292L216.719 54.11L217.096 51.5908L219.362 37.3555H240.758L240.884 36.3479L241.262 33.9536H259.888L264.42 62.4255L264.672 64.3145L266.182 63.1805C268.07 61.7953 270.084 60.7863 272.224 59.9049C275.119 58.7709 278.013 58.2671 281.035 58.2671C284.558 58.2671 287.957 59.0235 290.852 60.6613C290.978 60.6613 290.978 60.7876 291.229 60.9139L292.613 61.4178L292.739 59.9062L293.117 56.7569L293.243 55.7492L292.236 55.4966L288.46 54.6152L288.334 39.7498L317.156 46.0485L319.295 56.7569H321.561L323.827 47.5601L347.866 53.3549L323.197 127.557L305.703 122.013L305.577 115.211V114.203L304.57 114.077L287.076 111.558L288.083 102.613L288.335 100.472L286.448 101.479C285.568 101.983 284.686 102.361 283.805 102.613C280.91 103.747 278.016 104.251 275.121 104.251C274.24 104.251 273.484 104.251 272.604 104.125L271.094 103.999L271.346 105.51L272.605 113.32L247.056 108.784L245.672 97.1947L245.295 93.4152L243.533 96.6908L240.637 102.359L235.225 92.4075L233.589 89.3844L233.086 92.7864L231.953 100.472L209.55 96.9448L211.313 86.3627L211.69 83.9685L209.55 85.2288C205.9 87.3704 201.621 89.1346 196.712 90.2685C194.95 90.6461 193.189 91.025 191.3 91.1499L190.294 91.2762V112.44L146.243 90.6461L144.606 89.8896V110.425L124.847 113.323L123.966 104.379L123.714 101.985L121.951 103.622C119.308 106.142 116.413 108.158 113.267 109.544C109.994 110.929 106.595 111.685 103.324 111.685C100.053 111.685 96.7794 110.929 93.8854 109.67C88.5995 107.151 84.6975 102.488 83.0612 96.5686C82.3055 93.7968 82.0545 90.9 82.4317 87.8756L82.8089 84.7263L80.5431 86.9942C78.9069 88.5058 77.1444 90.0173 75.2572 91.4039L74.6276 91.9077L74.88 92.6642L81.5512 118.112L82.6841 122.648L78.2787 124.033L65.8182 128.064L61.539 129.198L61.5377 129.195ZM67.076 60.7876C66.4464 60.7876 65.8169 60.7876 65.0625 60.9139L64.182 61.0402L62.9229 61.2928L63.3001 62.5531L63.5525 63.3096L67.076 75.0256L67.4531 76.1596L67.9565 77.7974L69.2156 76.6634L70.0961 75.907C73.6196 72.7576 74.7525 69.6083 73.9981 65.5762C73.4948 63.1819 71.7323 62.0493 70.5994 61.5454C69.8437 61.0416 68.4598 60.789 67.076 60.789V60.7876ZM162.979 61.1652L160.714 63.3068L154.798 68.9754L153.539 70.2357L155.175 70.8658L161.468 73.2601L163.355 74.0166L162.978 72.0012C162.475 69.3557 162.349 66.7102 162.601 64.1909L162.978 61.1679L162.979 61.1652ZM188.655 54.6139C186.263 54.6139 183.872 55.6215 182.236 57.512C179.719 60.2838 179.216 64.4408 180.977 67.7165L181.48 68.5979L182.236 69.9831L183.369 68.7228L184.125 67.9664L192.809 58.1394L193.439 57.383L194.572 56.1227L193.061 55.4925L192.055 55.115C190.796 54.8624 189.789 54.6111 188.656 54.6111L188.655 54.6139Z" fill="#FFCB05"/>
<path d="M179.532 73.8726C179.909 74.2501 179.532 73.9989 179.909 74.2501L182.552 72.361C182.175 72.1084 181.796 71.7309 181.419 71.4797C177.643 67.9528 178.65 60.1412 181.042 55.8578C174.497 61.1488 174.876 69.2117 179.532 73.8726Z" fill="#C7A008"/>
<path d="M211.374 78.2809C206.968 81.9341 202.059 84.202 195.516 85.8399C194.132 86.2174 192.62 86.47 191.363 86.47C180.917 87.4777 172.233 82.6905 168.96 75.0052C168.583 74.1238 168.204 73.1161 167.953 72.1071C166.443 65.5558 167.701 59.7609 170.973 55.1C171.351 54.5962 171.603 54.2187 171.98 53.8398C171.854 53.9661 171.603 54.0924 171.477 54.2173C170.218 55.3513 169.085 56.4853 168.204 57.8705C164.932 62.4064 163.673 68.3262 165.184 74.8776C165.437 75.8852 165.688 76.8929 166.191 77.7757C169.463 85.5859 178.273 90.3731 188.594 89.3654C189.978 89.2391 191.363 88.9879 192.873 88.609C199.418 86.9711 204.451 84.7032 208.731 81.05C209.737 80.1686 210.87 79.1609 211.877 78.1519L211.751 78.0256C211.498 78.1519 211.374 78.1519 211.374 78.2782" fill="#C7A008"/>
<path d="M137.998 58.502L149.576 42.1251L149.073 41.7475L137.871 57.4957L137.998 58.5034V58.502Z" fill="#C7A008"/>
<path d="M214.897 56.3603L213.387 65.9347L211.374 64.1706L210.618 68.7065L206.591 65.0533L210.87 60.5174L212.129 59.1321V59.2584L213.639 57.7469L214.898 56.3617L214.897 56.3603Z" fill="#C7A008"/>
<path d="M200.549 29.4013L204.576 27.6372L197.151 18.0628L194.759 21.5897L200.548 29.4L200.549 29.4013Z" fill="#C7A008"/>
<path d="M87.78 53.0847C68.9008 30.1564 35.0457 42.5026 22.9624 53.211L23.4658 54.0924C26.2349 52.4545 29.2551 51.0693 32.2766 49.6827C44.3585 44.518 55.9384 43.0051 65.1263 44.6429C68.3988 45.0205 71.7975 46.0282 74.8176 48.0449C78.9706 50.4392 82.1169 53.7135 84.0055 57.9968C87.278 65.5558 84.3827 75.634 76.7062 83.9481C86.3975 75.0039 93.0673 66.4372 87.7814 53.0833L87.78 53.0847Z" fill="#C7A008"/>
<path d="M126.168 79.7924C126.042 79.4149 126.042 78.911 125.916 78.5321C124.909 74.7526 122.643 71.7296 119.623 69.7128C114.84 66.4372 108.045 65.807 101.373 68.5788C97.8499 70.0904 94.8284 72.4846 92.3116 75.2565C94.1988 73.6186 96.3384 72.3583 98.6042 71.3507C105.275 68.4525 112.071 69.209 116.854 72.4846C119.874 74.5 122.14 77.5244 123.147 81.3039C123.273 81.6815 123.399 82.1853 123.399 82.5642C123.651 84.0757 123.776 85.4623 123.776 86.9739C123.65 91.3835 122.014 95.7931 119.371 99.5713C118.994 100.201 118.49 100.705 117.987 101.335C119.497 99.9502 120.882 98.5636 122.014 96.9258C124.783 93.1463 126.293 88.7366 126.545 84.3283C126.545 82.8168 126.419 81.3053 126.168 79.7924Z" fill="#C7A008"/>
<path d="M107.666 74.2501C107.666 74.2501 110.435 71.4783 110.309 71.4783C106.91 71.352 105.4 74.6277 105.274 74.8803C106.03 74.5027 106.784 74.3764 107.666 74.2501Z" fill="#C7A008"/>
<path d="M114.085 78.1559C114.211 78.6598 114.337 79.0373 114.337 79.5412C114.337 80.2976 114.211 80.9264 113.834 81.5565C114.337 81.3039 118.365 79.2886 116.854 75.2578C116.98 75.5104 113.959 78.1559 114.085 78.1559Z" fill="#C7A008"/>
<path d="M98.478 80.5489C98.478 78.911 101.373 74.754 102.254 73.3674C97.7223 76.2655 95.7089 80.17 95.7089 83.1944C95.7089 88.4854 100.365 92.7687 105.904 92.7687C108.547 92.7687 113.329 91.3835 116.475 86.3437C114.839 87.4777 110.686 89.9969 108.42 89.9969C102.882 89.9969 98.478 85.8399 98.478 80.5489Z" fill="#C7A008"/>
<path d="M137.369 85.336L137.496 106.626L140.894 106.879L140.139 82.5642L137.369 85.336Z" fill="#C7A008"/>
<path d="M117.987 44.6443V46.5334L134.097 41.7462L135.23 62.2815L137.999 58.502L137.369 37.9667L117.987 44.6443Z" fill="#C7A008"/>
<path d="M166.442 51.952L151.465 38.0943L149.577 42.1251L162.918 54.5976L166.442 51.952Z" fill="#C7A008"/>
<path d="M164.176 77.777L146.43 71.8559L143.913 74.6277L161.533 81.6828C163.547 85.4623 166.568 88.738 170.344 91.006C173.994 93.2739 178.273 94.6592 182.678 95.0367V103.73L185.447 105.115L186.328 92.0137L164.176 77.7784V77.777Z" fill="#C7A008"/>
<path d="M192.62 75.3841C197.026 74.3764 199.416 72.1084 201.682 69.5892C200.046 70.9745 191.991 72.7386 190.607 73.1161L187.964 76.0142C189.097 76.0142 191.11 75.7616 192.62 75.3841Z" fill="#C7A008"/>
<path d="M184.692 45.1481C176.637 46.1558 172.484 52.9584 171.854 53.7148C174.874 51.1956 178.525 49.3052 182.678 48.4238C192.62 46.0295 201.305 49.0539 206.717 55.7302L210.116 52.9584C204.704 46.4071 194.635 42.7539 184.693 45.1481" fill="#C7A008"/>
<path d="M211.626 78.0296C212.633 77.2732 214.269 76.3918 215.276 75.3841L204.578 65.8098C203.697 66.8174 203.068 68.4553 202.061 69.2117L211.626 78.031V78.0296Z" fill="#C7A008"/>
<path d="M266.626 103.73C255.425 94.4065 256.054 74.6277 261.591 68.329L256.682 37.2116L245.858 38.5968L245.355 41.3686H253.536L257.941 69.5879C252.403 75.8866 249.76 84.327 251.523 92.1386C252.907 98.1861 256.682 102.973 261.968 105.745C262.472 105.998 263.101 106.249 263.605 106.501L263.731 106.879L267.003 107.383C266.877 107.509 267.256 103.981 266.626 103.73Z" fill="#C7A008"/>
<path d="M223.455 41.7475L222.952 44.5193H235.286L238.936 64.5508L241.705 61.779L238.81 40.6149L223.455 41.7489V41.7475Z" fill="#C7A008"/>
<path d="M244.6 80.5489L240.574 90.8797L241.58 93.6515L247.243 77.9034L244.6 80.5489Z" fill="#C7A008"/>
<path d="M232.77 74.1238L230 76.8957L226.98 95.5405L229.876 96.5482L232.771 74.1238H232.77Z" fill="#C7A008"/>
<path d="M288.273 68.0764C289.909 69.2103 291.293 70.7219 292.3 72.486C293.18 73.8712 293.684 75.2578 294.187 77.0219C295.571 82.6905 293.935 88.738 290.411 93.5252C290.034 94.029 289.656 94.5328 289.278 94.9104C290.662 93.6501 308.282 80.6751 291.166 63.6667C272.286 57.4943 265.113 69.7142 264.484 70.5956C266.497 68.9577 268.763 67.4462 271.28 66.5648C277.572 64.0456 283.865 64.927 288.27 68.0764" fill="#C7A008"/>
<path d="M278.834 69.3366C278.834 69.4629 281.603 66.5648 281.603 66.5648C278.205 66.6911 276.568 68.3289 276.821 69.084C276.568 69.3366 276.443 69.7142 276.317 69.9654C276.947 69.5879 278.331 69.3353 278.834 69.3353" fill="#C7A008"/>
<path d="M285.127 73.62C285.253 74.1238 285.253 74.5014 285.253 75.0052C285.253 75.6353 285.001 76.2655 284.75 76.7693C285.253 76.5167 289.281 75.2578 287.77 70.7219C287.896 70.9745 285.001 73.62 285.127 73.62Z" fill="#C7A008"/>
<path d="M276.191 87.8552C279.967 87.9815 284.246 85.7136 287.266 81.5565C279.588 83.1944 271.409 70.218 272.163 68.9591C269.268 71.1008 266.625 75.1315 266.5 78.0296C266.248 83.3207 270.653 87.604 276.191 87.8566" fill="#C7A008"/>
<path d="M318.605 121.492L320.367 122.626L342.519 56.1077L325.905 52.3282L325.779 56.234L339.12 59.1321L318.605 121.492Z" fill="#C7A008"/>
<path d="M292.301 45.1481L292.427 48.9276L310.048 52.4545L316.844 84.7059L319.613 81.9341L313.068 49.3052L292.301 45.1481Z" fill="#C7A008"/>
<path d="M305.893 81.934L300.984 109.398L303.754 110.28L308.662 79.1622L305.893 81.934Z" fill="#C7A008"/>
<path d="M77.2082 119.476L69.027 89.4931L66.0068 91.6347L73.6847 120.233L77.2082 119.476Z" fill="#C7A008"/>
<path d="M75.0686 74.5014C73.1814 76.5167 68.9022 80.4225 66.5102 81.9341L65.0001 77.2732L61.8538 66.9424L59.8404 60.0135L57.827 62.5327L59.8404 69.4616L62.9867 79.6661L64.4968 84.327C67.8954 82.4379 72.678 78.4058 75.0686 74.5" fill="#C7A008"/>
<path d="M195.954 56.378C191.549 52.3472 184.753 52.5985 180.726 57.0081C176.699 61.4177 176.95 68.2203 181.355 72.251C181.733 72.6286 182.111 72.8812 182.488 73.1324L196.71 57.0067C196.457 56.8804 196.206 56.6292 195.954 56.3766V56.378ZM182.613 67.7165C181.229 65.1972 181.48 61.9216 183.62 59.6536C185.633 57.5119 188.655 56.8818 191.298 57.8895L182.613 67.7165Z" fill="#3567B0"/>
<path d="M287.77 70.8482C287.896 71.352 287.896 71.8559 287.896 72.3597C287.77 75.3828 285.001 77.6507 281.603 77.5244C278.205 77.3981 275.562 74.8789 275.688 71.8559C275.814 69.084 278.331 66.8161 281.351 66.6911C280.721 66.5648 280.092 66.4385 279.464 66.4385C273.801 66.1859 269.269 70.218 269.018 75.1315C268.766 80.4225 273.045 84.8322 278.583 84.9585C284.246 85.2111 288.778 81.179 289.029 75.888C289.406 74.1238 288.776 72.3611 287.77 70.8482Z" fill="#3466AF"/>
<path d="M117.105 76.8956C117.105 79.9187 114.336 82.3129 111.063 82.3129C107.791 82.3129 105.022 79.9187 105.022 76.8956C105.022 74.1238 107.414 71.7309 110.56 71.4783C109.93 71.352 109.301 71.352 108.673 71.352C103.01 71.352 98.6042 75.509 98.6042 80.5488C98.6042 85.8398 103.01 89.9969 108.547 89.9969C114.083 89.9969 118.615 85.8398 118.615 80.5488C118.615 78.6597 117.985 77.0219 116.979 75.509C116.979 75.8866 117.105 76.3904 117.105 76.8943" fill="url(#paint7_linear_4_2)"/>
<path d="M322.82 46.426L320.303 56.7569L318.037 45.2921L287.076 38.4895L287.329 55.7492L291.985 56.7569L291.608 59.9062C291.608 59.9062 291.482 59.9062 291.482 59.7799C285.692 56.7569 278.518 56.378 271.848 59.0235C269.582 59.9049 267.443 61.0388 265.556 62.4254L260.899 32.9459H240.384L239.88 36.3478H218.233L215.717 51.4658L213.954 49.1979C208.668 42.7728 201.116 39.2459 192.684 38.9933L211.06 29.1664L198.22 10.0176L175.061 36.7254L179.088 41.6389C175.439 43.1504 172.292 45.1658 169.649 47.6863L149.763 30.0491L142.841 43.2767L143.094 30.4267L112.006 40.3786L112.887 57.0081L118.173 55.6229L118.928 64.0633C112.887 61.2914 105.587 61.4177 98.9163 64.3159C96.9028 65.1972 95.0142 66.2049 93.378 67.4652C94.5109 62.3005 94.2585 57.2607 92.2451 52.7261C89.9793 47.4351 85.8263 42.8991 80.9175 40.1287C77.3941 37.7344 73.2397 36.3492 68.8357 35.8453C58.1376 33.9563 45.1739 35.8453 32.4624 41.2627C27.806 43.278 23.4007 45.546 19.4986 48.0652L14.5899 51.2146L17.61 56.2544L26.9242 72.1275L29.8195 76.9146L34.8544 74.3954L35.6101 74.0179L58.7685 125.669L61.0343 130.583L66.194 128.945L78.6545 124.914L84.1928 123.15L82.8089 117.606L76.1377 92.1589C78.025 90.7737 79.7874 89.2608 81.4236 87.623C81.0464 90.646 81.2974 93.7954 82.0532 96.6935C83.8156 102.866 87.8424 107.779 93.5069 110.425C99.5485 113.323 106.974 113.323 113.77 110.425C117.169 108.913 120.315 106.898 122.832 104.253L123.712 114.457L145.612 111.181V91.5288L191.298 114.206V92.4115C193.185 92.2852 194.947 91.9077 196.836 91.5302C201.871 90.2699 206.15 88.632 210.051 86.3654L208.163 98.0815L232.832 101.987L234.216 93.043L240.635 105.012L244.537 97.4527L245.921 109.925L273.862 114.839L272.352 105.391C276.127 105.768 280.154 105.264 284.056 103.879C284.937 103.502 285.943 103.123 286.699 102.619L285.566 112.697L304.193 115.342L304.319 123.028L323.702 129.075L349 52.8578L322.821 46.4328L322.82 46.426ZM213.576 57.7645L214.835 56.3793L213.325 65.9537L209.298 62.3005L213.577 57.7645H213.576ZM197.214 18.4594L204.01 27.6562L184.628 37.2306L183.244 35.2152C183.244 35.3415 197.214 18.4594 197.214 18.4594ZM68.9632 89.5107L76.6411 119.241L64.1806 123.272L38.5054 65.8274C37.1215 66.5838 34.4786 67.8428 32.2128 68.9767L22.8987 53.2286C26.5483 50.8343 30.7014 48.819 34.9806 46.9299C47.0625 41.7652 58.6424 40.2523 67.8303 41.8901C71.1028 42.2676 74.5015 43.2753 77.5216 45.2921C81.6746 47.6863 84.8209 50.9606 86.7095 55.244C91.2411 65.5748 83.8142 80.4402 68.9632 89.5107ZM126.48 84.2197C126.354 88.6293 124.718 93.039 121.949 96.8171C119.306 100.47 115.782 103.368 111.503 105.257C100.679 109.918 89.8558 105.257 86.9605 94.9267C84.1914 84.9748 90.7364 73.1324 101.182 68.5965C107.853 65.6984 114.649 66.4548 119.432 69.7305C122.452 71.7458 124.718 74.7702 125.724 78.5498C125.851 78.9273 125.977 79.4311 125.977 79.81C126.48 81.3216 126.48 82.8331 126.48 84.2197ZM185.507 105.259L140.072 82.5818L140.198 106.391L128.493 108.029L127.613 98.2023C131.263 92.0299 132.522 84.5959 130.633 77.9196C129.626 74.2664 127.738 70.9907 125.095 68.4715L123.459 48.4401L118.173 49.8253L117.92 44.7855L136.8 39.1169L137.932 58.5183L151.777 38.992L165.495 51.9683L146.491 71.9998L164.363 79.0549C166.377 82.8344 169.398 85.9838 173.174 88.3781C176.824 90.646 181.103 92.0313 185.508 92.4088V105.259H185.507ZM161.971 72.2524L155.679 69.8581L161.594 64.1896C161.217 66.8351 161.342 69.4806 161.971 72.2524ZM211.308 78.2999C206.903 81.9531 201.994 84.221 195.451 85.8589C194.067 86.2364 192.555 86.489 191.298 86.489C180.852 87.4967 172.167 82.7095 168.895 75.0242C168.518 74.1428 168.139 73.1351 167.888 72.1261C166.378 65.5748 167.636 59.7799 170.908 55.119C171.789 53.7338 172.922 52.5998 174.181 51.4658C177.201 48.694 181.103 46.8049 185.508 45.671C195.451 43.2767 204.135 46.3011 209.547 52.8524L190.668 73.0088C191.927 73.2614 193.941 72.8825 195.451 72.505C199.982 71.371 202.499 68.9781 204.639 66.4575L212.19 73.2601L214.456 75.2755C213.449 76.4094 212.443 77.4171 211.31 78.2985L211.308 78.2999ZM251.458 105.134L247.304 77.9223L241.515 92.914L232.831 74.1428H232.704L229.306 95.9371L214.832 93.4179L216.845 81.3243C217.349 80.8204 217.978 80.3166 218.482 79.6864L223.138 74.8993L218.606 70.7422L223.515 41.7665H238.115L241.765 61.798L245.918 38.6172H256.364L260.769 66.8364C255.231 73.1351 252.588 81.5755 254.35 89.3871C255.734 95.4346 259.51 100.222 264.796 103.119C265.299 103.371 265.929 103.622 266.432 103.875L266.935 107.528L251.455 105.134H251.458ZM287.578 96.1897C285.942 97.3237 284.18 98.3313 282.292 98.9615C278.517 100.347 274.867 100.726 271.468 99.9692C269.202 99.4653 267.063 98.5839 265.176 97.3237C262.28 95.182 260.141 92.1589 259.134 88.2531C258.001 83.5923 259.008 78.5525 261.526 74.1428C262.785 72.0012 264.421 69.9858 266.309 68.2217C268.448 66.3326 270.965 64.6948 273.608 63.6857C280.027 61.2914 286.319 62.1742 290.725 65.3235C292.361 66.4575 293.745 67.9691 294.752 69.7332C295.507 71.1184 296.135 72.6313 296.514 74.2691C297.898 79.9377 296.262 85.9852 292.738 90.7723C291.605 92.914 289.718 94.6781 287.578 96.1897ZM320.302 121.89L309.604 118.74L308.723 79.1826L303.311 109.67L291.607 107.781L292.487 98.9615C300.165 92.5365 304.192 82.332 301.926 73.0102C300.919 68.9795 298.906 65.3249 295.884 62.6794L296.891 52.3486L292.486 51.2146L292.612 45.671L312.749 49.7017L319.545 81.8268L326.467 52.9774L341.821 56.3793L320.299 121.888L320.302 121.89Z" fill="url(#paint8_linear_4_2)"/>
<path d="M76.8921 65.9523C75.7592 59.9049 67.8303 56.5043 59.9014 60.7876L61.9149 67.7165L65.0612 78.0473L66.5712 82.7082C72.4867 79.055 78.4021 74.3941 76.8921 65.9523ZM69.0894 75.4004C68.2088 72.6286 66.3202 66.5811 66.3202 66.5811C66.3202 66.5811 65.9431 65.3208 65.4397 63.8093C67.0759 63.5567 68.7122 63.683 69.9713 64.3132C70.727 64.6907 71.9847 65.4471 72.237 67.085C72.9928 70.3606 71.8599 72.8798 69.0907 75.399L69.0894 75.4004Z" fill="#3C5AA6"/>
</g>
<defs>
<filter id="filter0_d_4_2" x="0" y="0" width="371" height="156.47" filterUnits="userSpaceOnUse" color-interpolation-filters="sRGB">
<feFlood flood-opacity="0" result="BackgroundImageFix"/>
<feColorMatrix in="SourceAlpha" type="matrix" values="0 0 0 0 0 0 0 0 0 0 0 0 0 0 0 0 0 0 127 0" result="hardAlpha"/>
<feOffset dx="6" dy="6"/>
<feGaussianBlur stdDeviation="8"/>
<feComposite in2="hardAlpha" operator="out"/>
<feColorMatrix type="matrix" values="0 0 0 0 0 0 0 0 0 0 0 0 0 0 0 0 0 0 0.25 0"/>
<feBlend mode="normal" in2="BackgroundImageFix" result="effect1_dropShadow_4_2"/>
<feBlend mode="normal" in="SourceGraphic" in2="effect1_dropShadow_4_2" result="shape"/>
</filter>
<linearGradient id="paint0_linear_4_2" x1="27.3241" y1="78.1745" x2="14.6893" y2="54.6551" gradientUnits="userSpaceOnUse">
<stop stop-color="#0070B6"/>
<stop offset="1" stop-color="#1D2C5E"/>
</linearGradient>
<linearGradient id="paint1_linear_4_2" x1="181.157" y1="30.0693" x2="197.176" y2="12.9071" gradientUnits="userSpaceOnUse">
<stop stop-color="#0070B6"/>
<stop offset="1" stop-color="#1D2C5E"/>
</linearGradient>
<linearGradient id="paint2_linear_4_2" x1="111.329" y1="58.7156" x2="109.412" y2="42.6726" gradientUnits="userSpaceOnUse">
<stop stop-color="#0070B6"/>
<stop offset="1" stop-color="#1D2C5E"/>
</linearGradient>
<linearGradient id="paint3_linear_4_2" x1="286.188" y1="55.6279" x2="285.432" y2="41.1347" gradientUnits="userSpaceOnUse">
<stop stop-color="#125D9E"/>
<stop offset="1" stop-color="#1D2C5E"/>
</linearGradient>
<linearGradient id="paint4_linear_4_2" x1="232.779" y1="34.7324" x2="215.96" y2="61.4736" gradientUnits="userSpaceOnUse">
<stop stop-color="#125D9E"/>
<stop offset="1" stop-color="#1D2C5E"/>
</linearGradient>
<linearGradient id="paint5_linear_4_2" x1="84.171" y1="77.6199" x2="95.6462" y2="100.157" gradientUnits="userSpaceOnUse">
<stop stop-color="#105FA1"/>
<stop offset="1" stop-color="#1D2C5E"/>
</linearGradient>
<linearGradient id="paint6_linear_4_2" x1="40.8591" y1="69.97" x2="54.1387" y2="100.724" gradientUnits="userSpaceOnUse">
<stop stop-color="#105FA1"/>
<stop offset="1" stop-color="#1D2C5E"/>
</linearGradient>
<linearGradient id="paint7_linear_4_2" x1="99.1404" y1="81.2444" x2="119.197" y2="81.2444" gradientUnits="userSpaceOnUse">
<stop stop-color="#3C5AA6"/>
<stop offset="0.93" stop-color="#2B73B9"/>
<stop offset="1" stop-color="#2A75BB"/>
</linearGradient>
<linearGradient id="paint8_linear_4_2" x1="15.2887" y1="70.8655" x2="349.823" y2="70.8655" gradientUnits="userSpaceOnUse">
<stop stop-color="#3C5AA6"/>
<stop offset="0.93" stop-color="#2B73B9"/>
<stop offset="1" stop-color="#2A75BB"/>
</linearGradient>
</defs>
</svg>
